<svg width="23" height="26" viewBox="0 0 23 26" fill="none" xmlns="http://www.w3.org/2000/svg">
<path fill-rule="evenodd" clip-rule="evenodd" d="M20.5011 3.02433H21.944C22.5151 3.02433 22.9777 2.53674 22.9777 1.93448V1.09266C22.9777 0.490776 22.5151 0.00282001 21.944 0.00282001H2.01362C1.44257 0.00282001 0.97995 0.490776 0.97995 1.09266V1.93448C0.97995 2.53674 1.44257 3.02433 2.01362 3.02433H3.45575C3.56483 7.06786 5.0952 10.7616 7.46043 12.8735C5.03873 15.0341 3.49445 18.841 3.45498 23.0194H2.01362C1.44257 23.0194 0.97995 23.5069 0.97995 24.1092V24.9067C0.97995 25.5078 1.44257 25.9965 2.01362 25.9965H21.944C22.5151 25.9965 22.9777 25.5078 22.9777 24.9067V24.1092C22.9777 23.5069 22.5151 23.0194 21.944 23.0194H20.5034C20.464 18.8428 18.9188 15.0359 16.498 12.8735C18.8616 10.7623 20.392 7.06786 20.5011 3.02433ZM13.7823 13.7838L14.1691 13.9926C16.792 15.3451 18.5599 18.9307 18.6056 23.0194H5.35055C5.39698 18.93 7.16715 15.3458 9.78928 13.9926L10.1746 13.7878C10.5103 13.6157 10.7224 13.2545 10.7224 12.8603C10.7224 12.4672 10.5103 12.1057 10.1746 11.932L9.78928 11.7386C7.22988 10.4198 5.48047 6.93416 5.35285 3.02433H18.6056C18.4778 6.93416 16.727 10.418 14.1699 11.7378L13.783 11.9346C13.4481 12.1075 13.2376 12.4646 13.2376 12.8588C13.2368 13.2526 13.4481 13.6109 13.7823 13.7838ZM7.77302 21.9954H16.7416C16.4353 19.6854 14.5552 17.8614 12.2581 17.8614C9.95947 17.8614 8.0809 19.6854 7.77302 21.9954ZM8.60935 9.55673H15.3327C14.5049 10.5337 13.3165 11.1635 11.9711 11.1635C10.6256 11.1635 9.43565 10.533 8.60935 9.55673Z" fill="white"/>
</svg>
