<svg width="254" height="180" viewBox="0 0 254 180" fill="none" xmlns="http://www.w3.org/2000/svg">
<mask id="path-1-inside-1" fill="white">
<path fill-rule="evenodd" clip-rule="evenodd" d="M164 180C213.706 180 254 139.706 254 90C254 40.2945 213.706 -5.96046e-06 164 -5.96046e-06C114.295 -5.96046e-06 7.98702e-06 -5.96046e-06 7.98702e-06 -5.96046e-06"/>
</mask>
<path fill-rule="evenodd" clip-rule="evenodd" d="M164 180C213.706 180 254 139.706 254 90C254 40.2945 213.706 -5.96046e-06 164 -5.96046e-06C114.295 -5.96046e-06 7.98702e-06 -5.96046e-06 7.98702e-06 -5.96046e-06" fill="black" fill-opacity="0.01"/>
<path d="M164 182C214.81 182 256 140.81 256 90H252C252 138.601 212.601 178 164 178V182ZM256 90C256 39.1899 214.81 -2.00001 164 -2.00001V1.99999C212.601 1.99999 252 41.399 252 90H256ZM164 -2.00001C163.903 -2.00001 163.806 -2.00001 163.708 -2.00001C163.61 -2.00001 163.513 -2.00001 163.415 -2.00001C163.317 -2.00001 163.218 -2.00001 163.12 -2.00001C163.021 -2.00001 162.922 -2.00001 162.823 -2.00001C162.724 -2.00001 162.625 -2.00001 162.525 -2.00001C162.426 -2.00001 162.326 -2.00001 162.226 -2.00001C162.126 -2.00001 162.026 -2.00001 161.926 -2.00001C161.825 -2.00001 161.724 -2.00001 161.623 -2.00001C161.523 -2.00001 161.421 -2.00001 161.32 -2.00001C161.219 -2.00001 161.117 -2.00001 161.015 -2.00001C160.913 -2.00001 160.811 -2.00001 160.709 -2.00001C160.606 -2.00001 160.504 -2.00001 160.401 -2.00001C160.298 -2.00001 160.195 -2.00001 160.092 -2.00001C159.989 -2.00001 159.885 -2.00001 159.781 -2.00001C159.678 -2.00001 159.574 -2.00001 159.47 -2.00001C159.365 -2.00001 159.261 -2.00001 159.156 -2.00001C159.052 -2.00001 158.947 -2.00001 158.842 -2.00001C158.737 -2.00001 158.631 -2.00001 158.526 -2.00001C158.42 -2.00001 158.315 -2.00001 158.209 -2.00001C158.103 -2.00001 157.997 -2.00001 157.89 -2.00001C157.784 -2.00001 157.677 -2.00001 157.57 -2.00001C157.463 -2.00001 157.356 -2.00001 157.249 -2.00001C157.142 -2.00001 157.034 -2.00001 156.927 -2.00001C156.819 -2.00001 156.711 -2.00001 156.603 -2.00001C156.495 -2.00001 156.386 -2.00001 156.278 -2.00001C156.169 -2.00001 156.06 -2.00001 155.951 -2.00001C155.842 -2.00001 155.733 -2.00001 155.624 -2.00001C155.514 -2.00001 155.405 -2.00001 155.295 -2.00001C155.185 -2.00001 155.075 -2.00001 154.965 -2.00001C154.855 -2.00001 154.744 -2.00001 154.633 -2.00001C154.523 -2.00001 154.412 -2.00001 154.301 -2.00001C154.19 -2.00001 154.079 -2.00001 153.967 -2.00001C153.856 -2.00001 153.744 -2.00001 153.632 -2.00001C153.52 -2.00001 153.408 -2.00001 153.296 -2.00001C153.183 -2.00001 153.071 -2.00001 152.958 -2.00001C152.845 -2.00001 152.733 -2.00001 152.62 -2.00001C152.506 -2.00001 152.393 -2.00001 152.28 -2.00001C152.166 -2.00001 152.052 -2.00001 151.939 -2.00001C151.825 -2.00001 151.711 -2.00001 151.596 -2.00001C151.482 -2.00001 151.368 -2.00001 151.253 -2.00001C151.138 -2.00001 151.023 -2.00001 150.908 -2.00001C150.793 -2.00001 150.678 -2.00001 150.563 -2.00001C150.447 -2.00001 150.332 -2.00001 150.216 -2.00001C150.1 -2.00001 149.984 -2.00001 149.868 -2.00001C149.752 -2.00001 149.635 -2.00001 149.519 -2.00001C149.402 -2.00001 149.285 -2.00001 149.169 -2.00001C149.052 -2.00001 148.934 -2.00001 148.817 -2.00001C148.7 -2.00001 148.582 -2.00001 148.465 -2.00001C148.347 -2.00001 148.229 -2.00001 148.111 -2.00001C147.993 -2.00001 147.875 -2.00001 147.757 -2.00001C147.638 -2.00001 147.52 -2.00001 147.401 -2.00001C147.282 -2.00001 147.163 -2.00001 147.044 -2.00001C146.925 -2.00001 146.806 -2.00001 146.686 -2.00001C146.567 -2.00001 146.447 -2.00001 146.327 -2.00001C146.208 -2.00001 146.088 -2.00001 145.967 -2.00001C145.847 -2.00001 145.727 -2.00001 145.606 -2.00001C145.486 -2.00001 145.365 -2.00001 145.244 -2.00001C145.124 -2.00001 145.003 -2.00001 144.881 -2.00001C144.76 -2.00001 144.639 -2.00001 144.517 -2.00001C144.396 -2.00001 144.274 -2.00001 144.152 -2.00001C144.03 -2.00001 143.908 -2.00001 143.786 -2.00001C143.664 -2.00001 143.542 -2.00001 143.419 -2.00001C143.297 -2.00001 143.174 -2.00001 143.051 -2.00001C142.928 -2.00001 142.805 -2.00001 142.682 -2.00001C142.559 -2.00001 142.436 -2.00001 142.312 -2.00001C142.189 -2.00001 142.065 -2.00001 141.941 -2.00001C141.818 -2.00001 141.694 -2.00001 141.569 -2.00001C141.445 -2.00001 141.321 -2.00001 141.197 -2.00001C141.072 -2.00001 140.948 -2.00001 140.823 -2.00001C140.698 -2.00001 140.573 -2.00001 140.448 -2.00001C140.323 -2.00001 140.198 -2.00001 140.073 -2.00001C139.947 -2.00001 139.822 -2.00001 139.696 -2.00001C139.571 -2.00001 139.445 -2.00001 139.319 -2.00001C139.193 -2.00001 139.067 -2.00001 138.94 -2.00001C138.814 -2.00001 138.688 -2.00001 138.561 -2.00001C138.435 -2.00001 138.308 -2.00001 138.181 -2.00001C138.054 -2.00001 137.927 -2.00001 137.8 -2.00001C137.673 -2.00001 137.546 -2.00001 137.418 -2.00001C137.291 -2.00001 137.164 -2.00001 137.036 -2.00001C136.908 -2.00001 136.78 -2.00001 136.652 -2.00001C136.524 -2.00001 136.396 -2.00001 136.268 -2.00001C136.14 -2.00001 136.011 -2.00001 135.883 -2.00001C135.754 -2.00001 135.626 -2.00001 135.497 -2.00001C135.368 -2.00001 135.239 -2.00001 135.11 -2.00001C134.981 -2.00001 134.852 -2.00001 134.722 -2.00001C134.593 -2.00001 134.464 -2.00001 134.334 -2.00001C134.204 -2.00001 134.075 -2.00001 133.945 -2.00001C133.815 -2.00001 133.685 -2.00001 133.555 -2.00001C133.425 -2.00001 133.294 -2.00001 133.164 -2.00001C133.034 -2.00001 132.903 -2.00001 132.773 -2.00001C132.642 -2.00001 132.511 -2.00001 132.38 -2.00001C132.249 -2.00001 132.118 -2.00001 131.987 -2.00001C131.856 -2.00001 131.725 -2.00001 131.593 -2.00001C131.462 -2.00001 131.331 -2.00001 131.199 -2.00001C131.067 -2.00001 130.936 -2.00001 130.804 -2.00001C130.672 -2.00001 130.54 -2.00001 130.408 -2.00001C130.276 -2.00001 130.143 -2.00001 130.011 -2.00001C129.879 -2.00001 129.746 -2.00001 129.614 -2.00001C129.481 -2.00001 129.348 -2.00001 129.216 -2.00001C129.083 -2.00001 128.95 -2.00001 128.817 -2.00001C128.684 -2.00001 128.551 -2.00001 128.417 -2.00001C128.284 -2.00001 128.151 -2.00001 128.017 -2.00001C127.884 -2.00001 127.75 -2.00001 127.617 -2.00001C127.483 -2.00001 127.349 -2.00001 127.215 -2.00001C127.081 -2.00001 126.947 -2.00001 126.813 -2.00001C126.679 -2.00001 126.545 -2.00001 126.41 -2.00001C126.276 -2.00001 126.142 -2.00001 126.007 -2.00001C125.873 -2.00001 125.738 -2.00001 125.603 -2.00001C125.468 -2.00001 125.333 -2.00001 125.199 -2.00001C125.064 -2.00001 124.929 -2.00001 124.793 -2.00001C124.658 -2.00001 124.523 -2.00001 124.388 -2.00001C124.252 -2.00001 124.117 -2.00001 123.981 -2.00001C123.846 -2.00001 123.71 -2.00001 123.574 -2.00001C123.439 -2.00001 123.303 -2.00001 123.167 -2.00001C123.031 -2.00001 122.895 -2.00001 122.759 -2.00001C122.623 -2.00001 122.486 -2.00001 122.35 -2.00001C122.214 -2.00001 122.077 -2.00001 121.941 -2.00001C121.804 -2.00001 121.668 -2.00001 121.531 -2.00001C121.394 -2.00001 121.258 -2.00001 121.121 -2.00001C120.984 -2.00001 120.847 -2.00001 120.71 -2.00001C120.573 -2.00001 120.436 -2.00001 120.299 -2.00001C120.161 -2.00001 120.024 -2.00001 119.887 -2.00001C119.749 -2.00001 119.612 -2.00001 119.474 -2.00001C119.337 -2.00001 119.199 -2.00001 119.062 -2.00001C118.924 -2.00001 118.786 -2.00001 118.648 -2.00001C118.51 -2.00001 118.373 -2.00001 118.235 -2.00001C118.097 -2.00001 117.958 -2.00001 117.82 -2.00001C117.682 -2.00001 117.544 -2.00001 117.406 -2.00001C117.267 -2.00001 117.129 -2.00001 116.99 -2.00001C116.852 -2.00001 116.713 -2.00001 116.575 -2.00001C116.436 -2.00001 116.297 -2.00001 116.159 -2.00001C116.02 -2.00001 115.881 -2.00001 115.742 -2.00001C115.603 -2.00001 115.464 -2.00001 115.325 -2.00001C115.186 -2.00001 115.047 -2.00001 114.908 -2.00001C114.769 -2.00001 114.629 -2.00001 114.49 -2.00001C114.351 -2.00001 114.211 -2.00001 114.072 -2.00001C113.933 -2.00001 113.793 -2.00001 113.653 -2.00001C113.514 -2.00001 113.374 -2.00001 113.235 -2.00001C113.095 -2.00001 112.955 -2.00001 112.815 -2.00001C112.675 -2.00001 112.536 -2.00001 112.396 -2.00001C112.256 -2.00001 112.116 -2.00001 111.976 -2.00001C111.835 -2.00001 111.695 -2.00001 111.555 -2.00001C111.415 -2.00001 111.275 -2.00001 111.134 -2.00001C110.994 -2.00001 110.854 -2.00001 110.713 -2.00001C110.573 -2.00001 110.433 -2.00001 110.292 -2.00001C110.152 -2.00001 110.011 -2.00001 109.87 -2.00001C109.73 -2.00001 109.589 -2.00001 109.448 -2.00001C109.308 -2.00001 109.167 -2.00001 109.026 -2.00001C108.885 -2.00001 108.744 -2.00001 108.603 -2.00001C108.463 -2.00001 108.322 -2.00001 108.181 -2.00001C108.04 -2.00001 107.898 -2.00001 107.757 -2.00001C107.616 -2.00001 107.475 -2.00001 107.334 -2.00001C107.193 -2.00001 107.052 -2.00001 106.91 -2.00001C106.769 -2.00001 106.628 -2.00001 106.486 -2.00001C106.345 -2.00001 106.204 -2.00001 106.062 -2.00001C105.921 -2.00001 105.779 -2.00001 105.638 -2.00001C105.496 -2.00001 105.355 -2.00001 105.213 -2.00001C105.071 -2.00001 104.93 -2.00001 104.788 -2.00001C104.646 -2.00001 104.505 -2.00001 104.363 -2.00001C104.221 -2.00001 104.079 -2.00001 103.938 -2.00001C103.796 -2.00001 103.654 -2.00001 103.512 -2.00001C103.37 -2.00001 103.228 -2.00001 103.086 -2.00001C102.944 -2.00001 102.803 -2.00001 102.661 -2.00001C102.519 -2.00001 102.377 -2.00001 102.234 -2.00001C102.092 -2.00001 101.95 -2.00001 101.808 -2.00001C101.666 -2.00001 101.524 -2.00001 101.382 -2.00001C101.24 -2.00001 101.098 -2.00001 100.955 -2.00001C100.813 -2.00001 100.671 -2.00001 100.529 -2.00001C100.386 -2.00001 100.244 -2.00001 100.102 -2.00001C99.9595 -2.00001 99.8172 -2.00001 99.6749 -2.00001C99.5325 -2.00001 99.3902 -2.00001 99.2478 -2.00001C99.1054 -2.00001 98.963 -2.00001 98.8206 -2.00001C98.6782 -2.00001 98.5358 -2.00001 98.3933 -2.00001C98.2509 -2.00001 98.1085 -2.00001 97.966 -2.00001C97.8235 -2.00001 97.681 -2.00001 97.5385 -2.00001C97.396 -2.00001 97.2535 -2.00001 97.111 -2.00001C96.9685 -2.00001 96.8259 -2.00001 96.6834 -2.00001C96.5408 -2.00001 96.3983 -2.00001 96.2557 -2.00001C96.1131 -2.00001 95.9706 -2.00001 95.828 -2.00001C95.6854 -2.00001 95.5428 -2.00001 95.4002 -2.00001C95.2576 -2.00001 95.115 -2.00001 94.9724 -2.00001C94.8298 -2.00001 94.6872 -2.00001 94.5445 -2.00001C94.4019 -2.00001 94.2593 -2.00001 94.1167 -2.00001C93.974 -2.00001 93.8314 -2.00001 93.6888 -2.00001C93.5462 -2.00001 93.4035 -2.00001 93.2609 -2.00001C93.1183 -2.00001 92.9756 -2.00001 92.833 -2.00001C92.6904 -2.00001 92.5478 -2.00001 92.4051 -2.00001C92.2625 -2.00001 92.1199 -2.00001 91.9773 -2.00001C91.8347 -2.00001 91.692 -2.00001 91.5494 -2.00001C91.4068 -2.00001 91.2642 -2.00001 91.1216 -2.00001C90.979 -2.00001 90.8364 -2.00001 90.6939 -2.00001C90.5513 -2.00001 90.4087 -2.00001 90.2662 -2.00001C90.1236 -2.00001 89.981 -2.00001 89.8385 -2.00001C89.696 -2.00001 89.5534 -2.00001 89.4109 -2.00001C89.2684 -2.00001 89.1259 -2.00001 88.9834 -2.00001C88.8409 -2.00001 88.6984 -2.00001 88.556 -2.00001C88.4135 -2.00001 88.271 -2.00001 88.1286 -2.00001C87.9862 -2.00001 87.8438 -2.00001 87.7014 -2.00001C87.559 -2.00001 87.4166 -2.00001 87.2742 -2.00001C87.1318 -2.00001 86.9895 -2.00001 86.8472 -2.00001C86.7048 -2.00001 86.5625 -2.00001 86.4203 -2.00001C86.278 -2.00001 86.1357 -2.00001 85.9935 -2.00001C85.8512 -2.00001 85.709 -2.00001 85.5668 -2.00001C85.4246 -2.00001 85.2825 -2.00001 85.1403 -2.00001C84.9982 -2.00001 84.8561 -2.00001 84.714 -2.00001C84.5719 -2.00001 84.4298 -2.00001 84.2878 -2.00001C84.1458 -2.00001 84.0038 -2.00001 83.8618 -2.00001C83.7198 -2.00001 83.5779 -2.00001 83.4359 -2.00001C83.294 -2.00001 83.1521 -2.00001 83.0103 -2.00001C82.8684 -2.00001 82.7266 -2.00001 82.5848 -2.00001C82.443 -2.00001 82.3013 -2.00001 82.1596 -2.00001C82.0178 -2.00001 81.8762 -2.00001 81.7345 -2.00001C81.5929 -2.00001 81.4512 -2.00001 81.3097 -2.00001C81.1681 -2.00001 81.0266 -2.00001 80.8851 -2.00001C80.7436 -2.00001 80.6021 -2.00001 80.4607 -2.00001C80.3193 -2.00001 80.1779 -2.00001 80.0365 -2.00001C79.8952 -2.00001 79.7539 -2.00001 79.6127 -2.00001C79.4714 -2.00001 79.3302 -2.00001 79.189 -2.00001C79.0479 -2.00001 78.9067 -2.00001 78.7657 -2.00001C78.6246 -2.00001 78.4836 -2.00001 78.3426 -2.00001C78.2016 -2.00001 78.0606 -2.00001 77.9198 -2.00001C77.7789 -2.00001 77.638 -2.00001 77.4972 -2.00001C77.3564 -2.00001 77.2157 -2.00001 77.075 -2.00001C76.9343 -2.00001 76.7937 -2.00001 76.6531 -2.00001C76.5125 -2.00001 76.372 -2.00001 76.2315 -2.00001C76.091 -2.00001 75.9506 -2.00001 75.8102 -2.00001C75.6698 -2.00001 75.5295 -2.00001 75.3892 -2.00001C75.249 -2.00001 75.1088 -2.00001 74.9686 -2.00001C74.8285 -2.00001 74.6884 -2.00001 74.5483 -2.00001C74.4083 -2.00001 74.2683 -2.00001 74.1284 -2.00001C73.9885 -2.00001 73.8486 -2.00001 73.7088 -2.00001C73.569 -2.00001 73.4293 -2.00001 73.2896 -2.00001C73.15 -2.00001 73.0104 -2.00001 72.8708 -2.00001C72.7313 -2.00001 72.5918 -2.00001 72.4524 -2.00001C72.313 -2.00001 72.1736 -2.00001 72.0344 -2.00001C71.8951 -2.00001 71.7559 -2.00001 71.6167 -2.00001C71.4776 -2.00001 71.3385 -2.00001 71.1995 -2.00001C71.0605 -2.00001 70.9215 -2.00001 70.7827 -2.00001C70.6438 -2.00001 70.505 -2.00001 70.3663 -2.00001C70.2276 -2.00001 70.0889 -2.00001 69.9503 -2.00001C69.8118 -2.00001 69.6732 -2.00001 69.5348 -2.00001C69.3964 -2.00001 69.258 -2.00001 69.1198 -2.00001C68.9815 -2.00001 68.8433 -2.00001 68.7051 -2.00001C68.567 -2.00001 68.429 -2.00001 68.291 -2.00001C68.153 -2.00001 68.0151 -2.00001 67.8773 -2.00001C67.7395 -2.00001 67.6018 -2.00001 67.4641 -2.00001C67.3265 -2.00001 67.1889 -2.00001 67.0514 -2.00001C66.914 -2.00001 66.7766 -2.00001 66.6392 -2.00001C66.5019 -2.00001 66.3647 -2.00001 66.2275 -2.00001C66.0904 -2.00001 65.9533 -2.00001 65.8164 -2.00001C65.6794 -2.00001 65.5425 -2.00001 65.4057 -2.00001C65.2689 -2.00001 65.1322 -2.00001 64.9956 -2.00001C64.8589 -2.00001 64.7224 -2.00001 64.586 -2.00001C64.4495 -2.00001 64.3132 -2.00001 64.1769 -2.00001C64.0406 -2.00001 63.9045 -2.00001 63.7684 -2.00001C63.6323 -2.00001 63.4963 -2.00001 63.3605 -2.00001C63.2246 -2.00001 63.0888 -2.00001 62.9531 -2.00001C62.8174 -2.00001 62.6818 -2.00001 62.5463 -2.00001C62.4108 -2.00001 62.2754 -2.00001 62.1401 -2.00001C62.0048 -2.00001 61.8696 -2.00001 61.7345 -2.00001C61.5994 -2.00001 61.4643 -2.00001 61.3294 -2.00001C61.1945 -2.00001 61.0597 -2.00001 60.925 -2.00001C60.7903 -2.00001 60.6557 -2.00001 60.5212 -2.00001C60.3867 -2.00001 60.2524 -2.00001 60.1181 -2.00001C59.9838 -2.00001 59.8496 -2.00001 59.7155 -2.00001C59.5815 -2.00001 59.4475 -2.00001 59.3136 -2.00001C59.1798 -2.00001 59.046 -2.00001 58.9124 -2.00001C58.7788 -2.00001 58.6452 -2.00001 58.5118 -2.00001C58.3784 -2.00001 58.2451 -2.00001 58.1119 -2.00001C57.9787 -2.00001 57.8456 -2.00001 57.7126 -2.00001C57.5797 -2.00001 57.4468 -2.00001 57.3141 -2.00001C57.1813 -2.00001 57.0487 -2.00001 56.9162 -2.00001C56.7837 -2.00001 56.6513 -2.00001 56.519 -2.00001C56.3867 -2.00001 56.2546 -2.00001 56.1225 -2.00001C55.9905 -2.00001 55.8586 -2.00001 55.7268 -2.00001C55.595 -2.00001 55.4633 -2.00001 55.3317 -2.00001C55.2002 -2.00001 55.0687 -2.00001 54.9374 -2.00001C54.8061 -2.00001 54.6749 -2.00001 54.5438 -2.00001C54.4128 -2.00001 54.2818 -2.00001 54.151 -2.00001C54.0202 -2.00001 53.8895 -2.00001 53.7589 -2.00001C53.6283 -2.00001 53.4979 -2.00001 53.3676 -2.00001C53.2373 -2.00001 53.1071 -2.00001 52.977 -2.00001C52.847 -2.00001 52.7171 -2.00001 52.5873 -2.00001C52.4575 -2.00001 52.3278 -2.00001 52.1983 -2.00001C52.0687 -2.00001 51.9393 -2.00001 51.8101 -2.00001C51.6808 -2.00001 51.5517 -2.00001 51.4227 -2.00001C51.2937 -2.00001 51.1648 -2.00001 51.0361 -2.00001C50.9074 -2.00001 50.7788 -2.00001 50.6503 -2.00001C50.5219 -2.00001 50.3935 -2.00001 50.2654 -2.00001C50.1372 -2.00001 50.0092 -2.00001 49.8813 -2.00001C49.7534 -2.00001 49.6256 -2.00001 49.498 -2.00001C49.3704 -2.00001 49.2429 -2.00001 49.1156 -2.00001C48.9882 -2.00001 48.861 -2.00001 48.734 -2.00001C48.6069 -2.00001 48.48 -2.00001 48.3533 -2.00001C48.2265 -2.00001 48.0999 -2.00001 47.9734 -2.00001C47.847 -2.00001 47.7207 -2.00001 47.5945 -2.00001C47.4683 -2.00001 47.3423 -2.00001 47.2164 -2.00001C47.0906 -2.00001 46.9648 -2.00001 46.8393 -2.00001C46.7137 -2.00001 46.5883 -2.00001 46.463 -2.00001C46.3377 -2.00001 46.2126 -2.00001 46.0877 -2.00001C45.9627 -2.00001 45.8379 -2.00001 45.7132 -2.00001C45.5886 -2.00001 45.4641 -2.00001 45.3397 -2.00001C45.2154 -2.00001 45.0912 -2.00001 44.9672 -2.00001C44.8432 -2.00001 44.7193 -2.00001 44.5956 -2.00001C44.4718 -2.00001 44.3483 -2.00001 44.2249 -2.00001C44.1015 -2.00001 43.9783 -2.00001 43.8552 -2.00001C43.7321 -2.00001 43.6092 -2.00001 43.4865 -2.00001C43.3637 -2.00001 43.2411 -2.00001 43.1187 -2.00001C42.9963 -2.00001 42.874 -2.00001 42.7519 -2.00001C42.6298 -2.00001 42.5079 -2.00001 42.3861 -2.00001C42.2644 -2.00001 42.1428 -2.00001 42.0214 -2.00001C41.8999 -2.00001 41.7787 -2.00001 41.6576 -2.00001C41.5365 -2.00001 41.4156 -2.00001 41.2948 -2.00001C41.1741 -2.00001 41.0535 -2.00001 40.9331 -2.00001C40.8127 -2.00001 40.6925 -2.00001 40.5724 -2.00001C40.4524 -2.00001 40.3325 -2.00001 40.2128 -2.00001C40.093 -2.00001 39.9735 -2.00001 39.8541 -2.00001C39.7348 -2.00001 39.6156 -2.00001 39.4966 -2.00001C39.3776 -2.00001 39.2588 -2.00001 39.1401 -2.00001C39.0215 -2.00001 38.903 -2.00001 38.7847 -2.00001C38.6664 -2.00001 38.5483 -2.00001 38.4304 -2.00001C38.3124 -2.00001 38.1947 -2.00001 38.0771 -2.00001C37.9596 -2.00001 37.8422 -2.00001 37.725 -2.00001C37.6078 -2.00001 37.4908 -2.00001 37.3739 -2.00001C37.2571 -2.00001 37.1404 -2.00001 37.024 -2.00001C36.9075 -2.00001 36.7913 -2.00001 36.6752 -2.00001C36.5591 -2.00001 36.4432 -2.00001 36.3275 -2.00001C36.2118 -2.00001 36.0963 -2.00001 35.981 -2.00001C35.8656 -2.00001 35.7505 -2.00001 35.6356 -2.00001C35.5206 -2.00001 35.4059 -2.00001 35.2913 -2.00001C35.1768 -2.00001 35.0624 -2.00001 34.9482 -2.00001C34.834 -2.00001 34.7201 -2.00001 34.6063 -2.00001C34.4925 -2.00001 34.3789 -2.00001 34.2656 -2.00001C34.1522 -2.00001 34.039 -2.00001 33.926 -2.00001C33.813 -2.00001 33.7002 -2.00001 33.5876 -2.00001C33.475 -2.00001 33.3627 -2.00001 33.2505 -2.00001C33.1383 -2.00001 33.0263 -2.00001 32.9145 -2.00001C32.8027 -2.00001 32.6912 -2.00001 32.5798 -2.00001C32.4684 -2.00001 32.3572 -2.00001 32.2463 -2.00001C32.1353 -2.00001 32.0245 -2.00001 31.914 -2.00001C31.8034 -2.00001 31.6931 -2.00001 31.5829 -2.00001C31.4728 -2.00001 31.3629 -2.00001 31.2531 -2.00001C31.1434 -2.00001 31.0339 -2.00001 30.9246 -2.00001C30.8153 -2.00001 30.7062 -2.00001 30.5973 -2.00001C30.4885 -2.00001 30.3798 -2.00001 30.2713 -2.00001C30.1629 -2.00001 30.0546 -2.00001 29.9466 -2.00001C29.8386 -2.00001 29.7308 -2.00001 29.6232 -2.00001C29.5156 -2.00001 29.4082 -2.00001 29.301 -2.00001C29.1939 -2.00001 29.0869 -2.00001 28.9802 -2.00001C28.8735 -2.00001 28.767 -2.00001 28.6607 -2.00001C28.5544 -2.00001 28.4484 -2.00001 28.3425 -2.00001C28.2367 -2.00001 28.131 -2.00001 28.0256 -2.00001C27.9202 -2.00001 27.8151 -2.00001 27.7101 -2.00001C27.6052 -2.00001 27.5004 -2.00001 27.3959 -2.00001C27.2914 -2.00001 27.1871 -2.00001 27.0831 -2.00001C26.979 -2.00001 26.8752 -2.00001 26.7716 -2.00001C26.668 -2.00001 26.5646 -2.00001 26.4615 -2.00001C26.3584 -2.00001 26.2555 -2.00001 26.1528 -2.00001C26.0501 -2.00001 25.9476 -2.00001 25.8454 -2.00001C25.7432 -2.00001 25.6412 -2.00001 25.5395 -2.00001C25.4377 -2.00001 25.3362 -2.00001 25.2349 -2.00001C25.1336 -2.00001 25.0326 -2.00001 24.9318 -2.00001C24.831 -2.00001 24.7304 -2.00001 24.6301 -2.00001C24.5297 -2.00001 24.4296 -2.00001 24.3298 -2.00001C24.2299 -2.00001 24.1303 -2.00001 24.0309 -2.00001C23.9315 -2.00001 23.8324 -2.00001 23.7335 -2.00001C23.6346 -2.00001 23.5359 -2.00001 23.4375 -2.00001C23.3391 -2.00001 23.2409 -2.00001 23.143 -2.00001C23.045 -2.00001 22.9473 -2.00001 22.8499 -2.00001C22.7525 -2.00001 22.6553 -2.00001 22.5583 -2.00001C22.4614 -2.00001 22.3647 -2.00001 22.2682 -2.00001C22.1717 -2.00001 22.0755 -2.00001 21.9796 -2.00001C21.8836 -2.00001 21.7879 -2.00001 21.6925 -2.00001C21.597 -2.00001 21.5018 -2.00001 21.4068 -2.00001C21.3119 -2.00001 21.2172 -2.00001 21.1227 -2.00001C21.0283 -2.00001 20.9341 -2.00001 20.8402 -2.00001C20.7462 -2.00001 20.6525 -2.00001 20.5591 -2.00001C20.4657 -2.00001 20.3725 -2.00001 20.2796 -2.00001C20.1867 -2.00001 20.094 -2.00001 20.0016 -2.00001C19.9092 -2.00001 19.8171 -2.00001 19.7252 -2.00001C19.6333 -2.00001 19.5417 -2.00001 19.4503 -2.00001C19.359 -2.00001 19.2679 -2.00001 19.177 -2.00001C19.0862 -2.00001 18.9956 -2.00001 18.9053 -2.00001C18.815 -2.00001 18.725 -2.00001 18.6352 -2.00001C18.5454 -2.00001 18.4559 -2.00001 18.3666 -2.00001C18.2774 -2.00001 18.1884 -2.00001 18.0997 -2.00001C18.011 -2.00001 17.9225 -2.00001 17.8344 -2.00001C17.7462 -2.00001 17.6583 -2.00001 17.5706 -2.00001C17.483 -2.00001 17.3956 -2.00001 17.3086 -2.00001C17.2215 -2.00001 17.1346 -2.00001 17.0481 -2.00001C16.9616 -2.00001 16.8753 -2.00001 16.7893 -2.00001C16.7033 -2.00001 16.6176 -2.00001 16.5321 -2.00001C16.4467 -2.00001 16.3615 -2.00001 16.2766 -2.00001C16.1917 -2.00001 16.1071 -2.00001 16.0227 -2.00001C15.9384 -2.00001 15.8543 -2.00001 15.7706 -2.00001C15.6868 -2.00001 15.6033 -2.00001 15.5201 -2.00001C15.4369 -2.00001 15.3539 -2.00001 15.2713 -2.00001C15.1886 -2.00001 15.1062 -2.00001 15.0242 -2.00001C14.9421 -2.00001 14.8603 -2.00001 14.7787 -2.00001C14.6972 -2.00001 14.616 -2.00001 14.5351 -2.00001C14.4541 -2.00001 14.3734 -2.00001 14.2931 -2.00001C14.2127 -2.00001 14.1326 -2.00001 14.0528 -2.00001C13.973 -2.00001 13.8935 -2.00001 13.8143 -2.00001C13.7351 -2.00001 13.6562 -2.00001 13.5776 -2.00001C13.4989 -2.00001 13.4206 -2.00001 13.3425 -2.00001C13.2645 -2.00001 13.1867 -2.00001 13.1093 -2.00001C13.0318 -2.00001 12.9547 -2.00001 12.8778 -2.00001C12.8009 -2.00001 12.7244 -2.00001 12.6481 -2.00001C12.5718 -2.00001 12.4959 -2.00001 12.4202 -2.00001C12.3445 -2.00001 12.2691 -2.00001 12.194 -2.00001C12.119 -2.00001 12.0442 -2.00001 11.9697 -2.00001C11.8952 -2.00001 11.8211 -2.00001 11.7472 -2.00001C11.6733 -2.00001 11.5998 -2.00001 11.5265 -2.00001C11.4532 -2.00001 11.3803 -2.00001 11.3076 -2.00001C11.2349 -2.00001 11.1626 -2.00001 11.0906 -2.00001C11.0185 -2.00001 10.9468 -2.00001 10.8753 -2.00001C10.8039 -2.00001 10.7328 -2.00001 10.662 -2.00001C10.5912 -2.00001 10.5207 -2.00001 10.4505 -2.00001C10.3803 -2.00001 10.3104 -2.00001 10.2408 -2.00001C10.1713 -2.00001 10.102 -2.00001 10.0331 -2.00001C9.96413 -2.00001 9.8955 -2.00001 9.82718 -2.00001C9.75887 -2.00001 9.69087 -2.00001 9.62318 -2.00001C9.5555 -2.00001 9.48813 -2.00001 9.42108 -2.00001C9.35403 -2.00001 9.28729 -2.00001 9.22088 -2.00001C9.15446 -2.00001 9.08837 -2.00001 9.02259 -2.00001C8.95682 -2.00001 8.89136 -2.00001 8.82623 -2.00001C8.76109 -2.00001 8.69628 -2.00001 8.63179 -2.00001C8.5673 -2.00001 8.50313 -2.00001 8.43929 -2.00001C8.37544 -2.00001 8.31192 -2.00001 8.24873 -2.00001C8.18553 -2.00001 8.12267 -2.00001 8.06012 -2.00001C7.99758 -2.00001 7.93537 -2.00001 7.87348 -2.00001C7.81159 -2.00001 7.75003 -2.00001 7.6888 -2.00001C7.62757 -2.00001 7.56667 -2.00001 7.5061 -2.00001C7.44553 -2.00001 7.38529 -2.00001 7.32539 -2.00001C7.26548 -2.00001 7.2059 -2.00001 7.14666 -2.00001C7.08742 -2.00001 7.02851 -2.00001 6.96994 -2.00001C6.91136 -2.00001 6.85312 -2.00001 6.79522 -2.00001C6.73732 -2.00001 6.67975 -2.00001 6.62252 -2.00001C6.56529 -2.00001 6.5084 -2.00001 6.45185 -2.00001C6.39529 -2.00001 6.33908 -2.00001 6.2832 -2.00001C6.22733 -2.00001 6.17179 -2.00001 6.1166 -2.00001C6.06141 -2.00001 6.00656 -2.00001 5.95205 -2.00001C5.89754 -2.00001 5.84337 -2.00001 5.78955 -2.00001C5.73573 -2.00001 5.68225 -2.00001 5.62912 -2.00001C5.57598 -2.00001 5.52319 -2.00001 5.47075 -2.00001C5.41831 -2.00001 5.36622 -2.00001 5.31447 -2.00001C5.26273 -2.00001 5.21133 -2.00001 5.16028 -2.00001C5.10923 -2.00001 5.05853 -2.00001 5.00818 -2.00001C4.95783 -2.00001 4.90783 -2.00001 4.85819 -2.00001C4.80854 -2.00001 4.75925 -2.00001 4.71031 -2.00001C4.66137 -2.00001 4.61278 -2.00001 4.56455 -2.00001C4.51631 -2.00001 4.46844 -2.00001 4.42092 -2.00001C4.37339 -2.00001 4.32623 -2.00001 4.27942 -2.00001C4.23261 -2.00001 4.18616 -2.00001 4.14007 -2.00001C4.09397 -2.00001 4.04824 -2.00001 4.00287 -2.00001C3.95749 -2.00001 3.91248 -2.00001 3.86783 -2.00001C3.82318 -2.00001 3.77888 -2.00001 3.73496 -2.00001C3.69103 -2.00001 3.64746 -2.00001 3.60426 -2.00001C3.56106 -2.00001 3.51822 -2.00001 3.47575 -2.00001C3.43328 -2.00001 3.39117 -2.00001 3.34943 -2.00001C3.30769 -2.00001 3.26632 -2.00001 3.22531 -2.00001C3.18431 -2.00001 3.14367 -2.00001 3.1034 -2.00001C3.06313 -2.00001 3.02324 -2.00001 2.98371 -2.00001C2.94418 -2.00001 2.90502 -2.00001 2.86624 -2.00001C2.82745 -2.00001 2.78904 -2.00001 2.751 -2.00001C2.71296 -2.00001 2.67529 -2.00001 2.638 -2.00001C2.60071 -2.00001 2.56379 -2.00001 2.52725 -2.00001C2.49071 -2.00001 2.45455 -2.00001 2.41876 -2.00001C2.38297 -2.00001 2.34756 -2.00001 2.31253 -2.00001C2.2775 -2.00001 2.24284 -2.00001 2.20857 -2.00001C2.1743 -2.00001 2.14041 -2.00001 2.10689 -2.00001C2.07338 -2.00001 2.04025 -2.00001 2.0075 -2.00001C1.97476 -2.00001 1.94239 -2.00001 1.91041 -2.00001C1.87843 -2.00001 1.84683 -2.00001 1.81562 -2.00001C1.78441 -2.00001 1.75359 -2.00001 1.72315 -2.00001C1.69271 -2.00001 1.66265 -2.00001 1.63299 -2.00001C1.60332 -2.00001 1.57405 -2.00001 1.54516 -2.00001C1.51627 -2.00001 1.48778 -2.00001 1.45967 -2.00001C1.43156 -2.00001 1.40384 -2.00001 1.37652 -2.00001C1.3492 -2.00001 1.32226 -2.00001 1.29572 -2.00001C1.26919 -2.00001 1.24304 -2.00001 1.21729 -2.00001C1.19154 -2.00001 1.16618 -2.00001 1.14122 -2.00001C1.11626 -2.00001 1.0917 -2.00001 1.06753 -2.00001C1.04336 -2.00001 1.01959 -2.00001 0.99622 -2.00001C0.972849 -2.00001 0.949877 -2.00001 0.927305 -2.00001C0.904732 -2.00001 0.88256 -2.00001 0.860789 -2.00001C0.839018 -2.00001 0.817648 -2.00001 0.796681 -2.00001C0.775714 -2.00001 0.75515 -2.00001 0.73499 -2.00001C0.71483 -2.00001 0.695073 -2.00001 0.675722 -2.00001C0.656371 -2.00001 0.637426 -2.00001 0.618887 -2.00001C0.600348 -2.00001 0.582216 -2.00001 0.564492 -2.00001C0.546767 -2.00001 0.529451 -2.00001 0.512545 -2.00001C0.495638 -2.00001 0.47914 -2.00001 0.463053 -2.00001C0.446967 -2.00001 0.43129 -2.00001 0.416026 -2.00001C0.400762 -2.00001 0.38591 -2.00001 0.371471 -2.00001C0.357032 -2.00001 0.343007 -2.00001 0.329396 -2.00001C0.315785 -2.00001 0.302589 -2.00001 0.289809 -2.00001C0.277029 -2.00001 0.264665 -2.00001 0.252718 -2.00001C0.240772 -2.00001 0.229242 -2.00001 0.218131 -2.00001C0.207021 -2.00001 0.196329 -2.00001 0.186056 -2.00001C0.175784 -2.00001 0.165932 -2.00001 0.156502 -2.00001C0.147071 -2.00001 0.138062 -2.00001 0.129475 -2.00001C0.120888 -2.00001 0.112724 -2.00001 0.104984 -2.00001C0.0972441 -2.00001 0.089928 -2.00001 0.0830374 -2.00001C0.0761467 -2.00001 0.0696814 -2.00001 0.0636427 -2.00001C0.057604 -2.00001 0.0519921 -2.00001 0.046808 -2.00001C0.041624 -2.00001 0.036868 -2.00001 0.0325413 -2.00001C0.0282147 -2.00001 0.0243173 -2.00001 0.0208507 -2.00001C0.0173839 -2.00001 0.014348 -2.00001 0.011744 -2.00001C0.00914001 -2.00001 0.00696802 -2.00001 0.00522935 -2.00001C0.00349069 -2.00001 0.00218534 -2.00001 0.00131464 -2.00001C0.000443935 -2.00001 7.98702e-06 -2.00001 7.98702e-06 -5.96046e-06C7.98702e-06 1.99999 0.000443935 1.99999 0.00131464 1.99999C0.00218534 1.99999 0.00349069 1.99999 0.00522935 1.99999C0.00696802 1.99999 0.00914001 1.99999 0.011744 1.99999C0.014348 1.99999 0.0173839 1.99999 0.0208507 1.99999C0.0243173 1.99999 0.0282147 1.99999 0.0325413 1.99999C0.036868 1.99999 0.041624 1.99999 0.046808 1.99999C0.0519921 1.99999 0.057604 1.99999 0.0636427 1.99999C0.0696814 1.99999 0.0761467 1.99999 0.0830374 1.99999C0.089928 1.99999 0.0972441 1.99999 0.104984 1.99999C0.112724 1.99999 0.120888 1.99999 0.129475 1.99999C0.138062 1.99999 0.147071 1.99999 0.156502 1.99999C0.165932 1.99999 0.175784 1.99999 0.186056 1.99999C0.196329 1.99999 0.207021 1.99999 0.218131 1.99999C0.229242 1.99999 0.240772 1.99999 0.252718 1.99999C0.264665 1.99999 0.277029 1.99999 0.289809 1.99999C0.302589 1.99999 0.315785 1.99999 0.329396 1.99999C0.343007 1.99999 0.357032 1.99999 0.371471 1.99999C0.38591 1.99999 0.400762 1.99999 0.416026 1.99999C0.43129 1.99999 0.446967 1.99999 0.463053 1.99999C0.47914 1.99999 0.495638 1.99999 0.512545 1.99999C0.529451 1.99999 0.546767 1.99999 0.564492 1.99999C0.582216 1.99999 0.600348 1.99999 0.618887 1.99999C0.637426 1.99999 0.656371 1.99999 0.675722 1.99999C0.695073 1.99999 0.71483 1.99999 0.73499 1.99999C0.75515 1.99999 0.775714 1.99999 0.796681 1.99999C0.817648 1.99999 0.839018 1.99999 0.860789 1.99999C0.88256 1.99999 0.904732 1.99999 0.927305 1.99999C0.949877 1.99999 0.972849 1.99999 0.99622 1.99999C1.01959 1.99999 1.04336 1.99999 1.06753 1.99999C1.0917 1.99999 1.11626 1.99999 1.14122 1.99999C1.16618 1.99999 1.19154 1.99999 1.21729 1.99999C1.24304 1.99999 1.26919 1.99999 1.29572 1.99999C1.32226 1.99999 1.3492 1.99999 1.37652 1.99999C1.40384 1.99999 1.43156 1.99999 1.45967 1.99999C1.48778 1.99999 1.51627 1.99999 1.54516 1.99999C1.57405 1.99999 1.60332 1.99999 1.63299 1.99999C1.66265 1.99999 1.69271 1.99999 1.72315 1.99999C1.75359 1.99999 1.78441 1.99999 1.81562 1.99999C1.84683 1.99999 1.87843 1.99999 1.91041 1.99999C1.94239 1.99999 1.97476 1.99999 2.0075 1.99999C2.04025 1.99999 2.07338 1.99999 2.10689 1.99999C2.14041 1.99999 2.1743 1.99999 2.20857 1.99999C2.24284 1.99999 2.2775 1.99999 2.31253 1.99999C2.34756 1.99999 2.38297 1.99999 2.41876 1.99999C2.45455 1.99999 2.49071 1.99999 2.52725 1.99999C2.56379 1.99999 2.60071 1.99999 2.638 1.99999C2.67529 1.99999 2.71296 1.99999 2.751 1.99999C2.78904 1.99999 2.82745 1.99999 2.86624 1.99999C2.90502 1.99999 2.94418 1.99999 2.98371 1.99999C3.02324 1.99999 3.06313 1.99999 3.1034 1.99999C3.14367 1.99999 3.18431 1.99999 3.22531 1.99999C3.26632 1.99999 3.30769 1.99999 3.34943 1.99999C3.39117 1.99999 3.43328 1.99999 3.47575 1.99999C3.51822 1.99999 3.56106 1.99999 3.60426 1.99999C3.64746 1.99999 3.69103 1.99999 3.73496 1.99999C3.77888 1.99999 3.82318 1.99999 3.86783 1.99999C3.91248 1.99999 3.95749 1.99999 4.00287 1.99999C4.04824 1.99999 4.09397 1.99999 4.14007 1.99999C4.18616 1.99999 4.23261 1.99999 4.27942 1.99999C4.32623 1.99999 4.37339 1.99999 4.42092 1.99999C4.46844 1.99999 4.51631 1.99999 4.56455 1.99999C4.61278 1.99999 4.66137 1.99999 4.71031 1.99999C4.75925 1.99999 4.80854 1.99999 4.85819 1.99999C4.90783 1.99999 4.95783 1.99999 5.00818 1.99999C5.05853 1.99999 5.10923 1.99999 5.16028 1.99999C5.21133 1.99999 5.26273 1.99999 5.31447 1.99999C5.36622 1.99999 5.41831 1.99999 5.47075 1.99999C5.52319 1.99999 5.57598 1.99999 5.62912 1.99999C5.68225 1.99999 5.73573 1.99999 5.78955 1.99999C5.84337 1.99999 5.89754 1.99999 5.95205 1.99999C6.00656 1.99999 6.06141 1.99999 6.1166 1.99999C6.17179 1.99999 6.22733 1.99999 6.2832 1.99999C6.33908 1.99999 6.39529 1.99999 6.45185 1.99999C6.5084 1.99999 6.56529 1.99999 6.62252 1.99999C6.67975 1.99999 6.73732 1.99999 6.79522 1.99999C6.85312 1.99999 6.91136 1.99999 6.96994 1.99999C7.02851 1.99999 7.08742 1.99999 7.14666 1.99999C7.2059 1.99999 7.26548 1.99999 7.32539 1.99999C7.38529 1.99999 7.44553 1.99999 7.5061 1.99999C7.56667 1.99999 7.62757 1.99999 7.6888 1.99999C7.75003 1.99999 7.81159 1.99999 7.87348 1.99999C7.93537 1.99999 7.99758 1.99999 8.06012 1.99999C8.12267 1.99999 8.18553 1.99999 8.24873 1.99999C8.31192 1.99999 8.37544 1.99999 8.43929 1.99999C8.50313 1.99999 8.5673 1.99999 8.63179 1.99999C8.69628 1.99999 8.76109 1.99999 8.82623 1.99999C8.89136 1.99999 8.95682 1.99999 9.02259 1.99999C9.08837 1.99999 9.15446 1.99999 9.22088 1.99999C9.28729 1.99999 9.35403 1.99999 9.42108 1.99999C9.48813 1.99999 9.5555 1.99999 9.62318 1.99999C9.69087 1.99999 9.75887 1.99999 9.82718 1.99999C9.8955 1.99999 9.96413 1.99999 10.0331 1.99999C10.102 1.99999 10.1713 1.99999 10.2408 1.99999C10.3104 1.99999 10.3803 1.99999 10.4505 1.99999C10.5207 1.99999 10.5912 1.99999 10.662 1.99999C10.7328 1.99999 10.8039 1.99999 10.8753 1.99999C10.9468 1.99999 11.0185 1.99999 11.0906 1.99999C11.1626 1.99999 11.2349 1.99999 11.3076 1.99999C11.3803 1.99999 11.4532 1.99999 11.5265 1.99999C11.5998 1.99999 11.6733 1.99999 11.7472 1.99999C11.8211 1.99999 11.8952 1.99999 11.9697 1.99999C12.0442 1.99999 12.119 1.99999 12.194 1.99999C12.2691 1.99999 12.3445 1.99999 12.4202 1.99999C12.4959 1.99999 12.5718 1.99999 12.6481 1.99999C12.7244 1.99999 12.8009 1.99999 12.8778 1.99999C12.9547 1.99999 13.0318 1.99999 13.1093 1.99999C13.1867 1.99999 13.2645 1.99999 13.3425 1.99999C13.4206 1.99999 13.4989 1.99999 13.5776 1.99999C13.6562 1.99999 13.7351 1.99999 13.8143 1.99999C13.8935 1.99999 13.973 1.99999 14.0528 1.99999C14.1326 1.99999 14.2127 1.99999 14.2931 1.99999C14.3734 1.99999 14.4541 1.99999 14.5351 1.99999C14.616 1.99999 14.6972 1.99999 14.7787 1.99999C14.8603 1.99999 14.9421 1.99999 15.0242 1.99999C15.1062 1.99999 15.1886 1.99999 15.2713 1.99999C15.3539 1.99999 15.4369 1.99999 15.5201 1.99999C15.6033 1.99999 15.6868 1.99999 15.7706 1.99999C15.8543 1.99999 15.9384 1.99999 16.0227 1.99999C16.1071 1.99999 16.1917 1.99999 16.2766 1.99999C16.3615 1.99999 16.4467 1.99999 16.5321 1.99999C16.6176 1.99999 16.7033 1.99999 16.7893 1.99999C16.8753 1.99999 16.9616 1.99999 17.0481 1.99999C17.1346 1.99999 17.2215 1.99999 17.3086 1.99999C17.3956 1.99999 17.483 1.99999 17.5706 1.99999C17.6583 1.99999 17.7462 1.99999 17.8344 1.99999C17.9225 1.99999 18.011 1.99999 18.0997 1.99999C18.1884 1.99999 18.2774 1.99999 18.3666 1.99999C18.4559 1.99999 18.5454 1.99999 18.6352 1.99999C18.725 1.99999 18.815 1.99999 18.9053 1.99999C18.9956 1.99999 19.0862 1.99999 19.177 1.99999C19.2679 1.99999 19.359 1.99999 19.4503 1.99999C19.5417 1.99999 19.6333 1.99999 19.7252 1.99999C19.8171 1.99999 19.9092 1.99999 20.0016 1.99999C20.094 1.99999 20.1867 1.99999 20.2796 1.99999C20.3725 1.99999 20.4657 1.99999 20.5591 1.99999C20.6525 1.99999 20.7462 1.99999 20.8402 1.99999C20.9341 1.99999 21.0283 1.99999 21.1227 1.99999C21.2172 1.99999 21.3119 1.99999 21.4068 1.99999C21.5018 1.99999 21.597 1.99999 21.6925 1.99999C21.7879 1.99999 21.8836 1.99999 21.9796 1.99999C22.0755 1.99999 22.1717 1.99999 22.2682 1.99999C22.3647 1.99999 22.4614 1.99999 22.5583 1.99999C22.6553 1.99999 22.7525 1.99999 22.8499 1.99999C22.9473 1.99999 23.045 1.99999 23.143 1.99999C23.2409 1.99999 23.3391 1.99999 23.4375 1.99999C23.5359 1.99999 23.6346 1.99999 23.7335 1.99999C23.8324 1.99999 23.9315 1.99999 24.0309 1.99999C24.1303 1.99999 24.2299 1.99999 24.3298 1.99999C24.4296 1.99999 24.5297 1.99999 24.6301 1.99999C24.7304 1.99999 24.831 1.99999 24.9318 1.99999C25.0326 1.99999 25.1336 1.99999 25.2349 1.99999C25.3362 1.99999 25.4377 1.99999 25.5395 1.99999C25.6412 1.99999 25.7432 1.99999 25.8454 1.99999C25.9476 1.99999 26.0501 1.99999 26.1528 1.99999C26.2555 1.99999 26.3584 1.99999 26.4615 1.99999C26.5646 1.99999 26.668 1.99999 26.7716 1.99999C26.8752 1.99999 26.979 1.99999 27.0831 1.99999C27.1871 1.99999 27.2914 1.99999 27.3959 1.99999C27.5004 1.99999 27.6052 1.99999 27.7101 1.99999C27.8151 1.99999 27.9202 1.99999 28.0256 1.99999C28.131 1.99999 28.2367 1.99999 28.3425 1.99999C28.4484 1.99999 28.5544 1.99999 28.6607 1.99999C28.767 1.99999 28.8735 1.99999 28.9802 1.99999C29.0869 1.99999 29.1939 1.99999 29.301 1.99999C29.4082 1.99999 29.5156 1.99999 29.6232 1.99999C29.7308 1.99999 29.8386 1.99999 29.9466 1.99999C30.0546 1.99999 30.1629 1.99999 30.2713 1.99999C30.3798 1.99999 30.4885 1.99999 30.5973 1.99999C30.7062 1.99999 30.8153 1.99999 30.9246 1.99999C31.0339 1.99999 31.1434 1.99999 31.2531 1.99999C31.3629 1.99999 31.4728 1.99999 31.5829 1.99999C31.6931 1.99999 31.8034 1.99999 31.914 1.99999C32.0245 1.99999 32.1353 1.99999 32.2463 1.99999C32.3572 1.99999 32.4684 1.99999 32.5798 1.99999C32.6912 1.99999 32.8027 1.99999 32.9145 1.99999C33.0263 1.99999 33.1383 1.99999 33.2505 1.99999C33.3627 1.99999 33.475 1.99999 33.5876 1.99999C33.7002 1.99999 33.813 1.99999 33.926 1.99999C34.039 1.99999 34.1522 1.99999 34.2656 1.99999C34.3789 1.99999 34.4925 1.99999 34.6063 1.99999C34.7201 1.99999 34.834 1.99999 34.9482 1.99999C35.0624 1.99999 35.1768 1.99999 35.2913 1.99999C35.4059 1.99999 35.5206 1.99999 35.6356 1.99999C35.7505 1.99999 35.8656 1.99999 35.981 1.99999C36.0963 1.99999 36.2118 1.99999 36.3275 1.99999C36.4432 1.99999 36.5591 1.99999 36.6752 1.99999C36.7913 1.99999 36.9075 1.99999 37.024 1.99999C37.1404 1.99999 37.2571 1.99999 37.3739 1.99999C37.4908 1.99999 37.6078 1.99999 37.725 1.99999C37.8422 1.99999 37.9596 1.99999 38.0771 1.99999C38.1947 1.99999 38.3124 1.99999 38.4304 1.99999C38.5483 1.99999 38.6664 1.99999 38.7847 1.99999C38.903 1.99999 39.0215 1.99999 39.1401 1.99999C39.2588 1.99999 39.3776 1.99999 39.4966 1.99999C39.6156 1.99999 39.7348 1.99999 39.8541 1.99999C39.9735 1.99999 40.093 1.99999 40.2128 1.99999C40.3325 1.99999 40.4524 1.99999 40.5724 1.99999C40.6925 1.99999 40.8127 1.99999 40.9331 1.99999C41.0535 1.99999 41.1741 1.99999 41.2948 1.99999C41.4156 1.99999 41.5365 1.99999 41.6576 1.99999C41.7787 1.99999 41.8999 1.99999 42.0214 1.99999C42.1428 1.99999 42.2644 1.99999 42.3861 1.99999C42.5079 1.99999 42.6298 1.99999 42.7519 1.99999C42.874 1.99999 42.9963 1.99999 43.1187 1.99999C43.2411 1.99999 43.3637 1.99999 43.4865 1.99999C43.6092 1.99999 43.7321 1.99999 43.8552 1.99999C43.9783 1.99999 44.1015 1.99999 44.2249 1.99999C44.3483 1.99999 44.4718 1.99999 44.5956 1.99999C44.7193 1.99999 44.8432 1.99999 44.9672 1.99999C45.0912 1.99999 45.2154 1.99999 45.3397 1.99999C45.4641 1.99999 45.5886 1.99999 45.7132 1.99999C45.8379 1.99999 45.9627 1.99999 46.0877 1.99999C46.2126 1.99999 46.3377 1.99999 46.463 1.99999C46.5883 1.99999 46.7137 1.99999 46.8393 1.99999C46.9648 1.99999 47.0906 1.99999 47.2164 1.99999C47.3423 1.99999 47.4683 1.99999 47.5945 1.99999C47.7207 1.99999 47.847 1.99999 47.9734 1.99999C48.0999 1.99999 48.2265 1.99999 48.3533 1.99999C48.48 1.99999 48.6069 1.99999 48.734 1.99999C48.861 1.99999 48.9882 1.99999 49.1156 1.99999C49.2429 1.99999 49.3704 1.99999 49.498 1.99999C49.6256 1.99999 49.7534 1.99999 49.8813 1.99999C50.0092 1.99999 50.1372 1.99999 50.2654 1.99999C50.3935 1.99999 50.5219 1.99999 50.6503 1.99999C50.7788 1.99999 50.9074 1.99999 51.0361 1.99999C51.1648 1.99999 51.2937 1.99999 51.4227 1.99999C51.5517 1.99999 51.6808 1.99999 51.8101 1.99999C51.9393 1.99999 52.0687 1.99999 52.1983 1.99999C52.3278 1.99999 52.4575 1.99999 52.5873 1.99999C52.7171 1.99999 52.847 1.99999 52.977 1.99999C53.1071 1.99999 53.2373 1.99999 53.3676 1.99999C53.4979 1.99999 53.6283 1.99999 53.7589 1.99999C53.8895 1.99999 54.0202 1.99999 54.151 1.99999C54.2818 1.99999 54.4128 1.99999 54.5438 1.99999C54.6749 1.99999 54.8061 1.99999 54.9374 1.99999C55.0687 1.99999 55.2002 1.99999 55.3317 1.99999C55.4633 1.99999 55.595 1.99999 55.7268 1.99999C55.8586 1.99999 55.9905 1.99999 56.1225 1.99999C56.2546 1.99999 56.3867 1.99999 56.519 1.99999C56.6513 1.99999 56.7837 1.99999 56.9162 1.99999C57.0487 1.99999 57.1813 1.99999 57.3141 1.99999C57.4468 1.99999 57.5797 1.99999 57.7126 1.99999C57.8456 1.99999 57.9787 1.99999 58.1119 1.99999C58.2451 1.99999 58.3784 1.99999 58.5118 1.99999C58.6452 1.99999 58.7788 1.99999 58.9124 1.99999C59.046 1.99999 59.1798 1.99999 59.3136 1.99999C59.4475 1.99999 59.5815 1.99999 59.7155 1.99999C59.8496 1.99999 59.9838 1.99999 60.1181 1.99999C60.2524 1.99999 60.3867 1.99999 60.5212 1.99999C60.6557 1.99999 60.7903 1.99999 60.925 1.99999C61.0597 1.99999 61.1945 1.99999 61.3294 1.99999C61.4643 1.99999 61.5994 1.99999 61.7345 1.99999C61.8696 1.99999 62.0048 1.99999 62.1401 1.99999C62.2754 1.99999 62.4108 1.99999 62.5463 1.99999C62.6818 1.99999 62.8174 1.99999 62.9531 1.99999C63.0888 1.99999 63.2246 1.99999 63.3605 1.99999C63.4963 1.99999 63.6323 1.99999 63.7684 1.99999C63.9045 1.99999 64.0406 1.99999 64.1769 1.99999C64.3132 1.99999 64.4495 1.99999 64.586 1.99999C64.7224 1.99999 64.8589 1.99999 64.9956 1.99999C65.1322 1.99999 65.2689 1.99999 65.4057 1.99999C65.5425 1.99999 65.6794 1.99999 65.8164 1.99999C65.9533 1.99999 66.0904 1.99999 66.2275 1.99999C66.3647 1.99999 66.5019 1.99999 66.6392 1.99999C66.7766 1.99999 66.914 1.99999 67.0514 1.99999C67.1889 1.99999 67.3265 1.99999 67.4641 1.99999C67.6018 1.99999 67.7395 1.99999 67.8773 1.99999C68.0151 1.99999 68.153 1.99999 68.291 1.99999C68.429 1.99999 68.567 1.99999 68.7051 1.99999C68.8433 1.99999 68.9815 1.99999 69.1198 1.99999C69.258 1.99999 69.3964 1.99999 69.5348 1.99999C69.6732 1.99999 69.8118 1.99999 69.9503 1.99999C70.0889 1.99999 70.2276 1.99999 70.3663 1.99999C70.505 1.99999 70.6438 1.99999 70.7827 1.99999C70.9215 1.99999 71.0605 1.99999 71.1995 1.99999C71.3385 1.99999 71.4776 1.99999 71.6167 1.99999C71.7559 1.99999 71.8951 1.99999 72.0344 1.99999C72.1736 1.99999 72.313 1.99999 72.4524 1.99999C72.5918 1.99999 72.7313 1.99999 72.8708 1.99999C73.0104 1.99999 73.15 1.99999 73.2896 1.99999C73.4293 1.99999 73.569 1.99999 73.7088 1.99999C73.8486 1.99999 73.9885 1.99999 74.1284 1.99999C74.2683 1.99999 74.4083 1.99999 74.5483 1.99999C74.6884 1.99999 74.8285 1.99999 74.9686 1.99999C75.1088 1.99999 75.249 1.99999 75.3892 1.99999C75.5295 1.99999 75.6698 1.99999 75.8102 1.99999C75.9506 1.99999 76.091 1.99999 76.2315 1.99999C76.372 1.99999 76.5125 1.99999 76.6531 1.99999C76.7937 1.99999 76.9343 1.99999 77.075 1.99999C77.2157 1.99999 77.3564 1.99999 77.4972 1.99999C77.638 1.99999 77.7789 1.99999 77.9198 1.99999C78.0606 1.99999 78.2016 1.99999 78.3426 1.99999C78.4836 1.99999 78.6246 1.99999 78.7657 1.99999C78.9067 1.99999 79.0479 1.99999 79.189 1.99999C79.3302 1.99999 79.4714 1.99999 79.6127 1.99999C79.7539 1.99999 79.8952 1.99999 80.0365 1.99999C80.1779 1.99999 80.3193 1.99999 80.4607 1.99999C80.6021 1.99999 80.7436 1.99999 80.8851 1.99999C81.0266 1.99999 81.1681 1.99999 81.3097 1.99999C81.4512 1.99999 81.5929 1.99999 81.7345 1.99999C81.8762 1.99999 82.0178 1.99999 82.1596 1.99999C82.3013 1.99999 82.443 1.99999 82.5848 1.99999C82.7266 1.99999 82.8684 1.99999 83.0103 1.99999C83.1521 1.99999 83.294 1.99999 83.4359 1.99999C83.5779 1.99999 83.7198 1.99999 83.8618 1.99999C84.0038 1.99999 84.1458 1.99999 84.2878 1.99999C84.4298 1.99999 84.5719 1.99999 84.714 1.99999C84.8561 1.99999 84.9982 1.99999 85.1403 1.99999C85.2825 1.99999 85.4246 1.99999 85.5668 1.99999C85.709 1.99999 85.8512 1.99999 85.9935 1.99999C86.1357 1.99999 86.278 1.99999 86.4203 1.99999C86.5625 1.99999 86.7048 1.99999 86.8472 1.99999C86.9895 1.99999 87.1318 1.99999 87.2742 1.99999C87.4166 1.99999 87.559 1.99999 87.7014 1.99999C87.8438 1.99999 87.9862 1.99999 88.1286 1.99999C88.271 1.99999 88.4135 1.99999 88.556 1.99999C88.6984 1.99999 88.8409 1.99999 88.9834 1.99999C89.1259 1.99999 89.2684 1.99999 89.4109 1.99999C89.5534 1.99999 89.696 1.99999 89.8385 1.99999C89.981 1.99999 90.1236 1.99999 90.2662 1.99999C90.4087 1.99999 90.5513 1.99999 90.6939 1.99999C90.8364 1.99999 90.979 1.99999 91.1216 1.99999C91.2642 1.99999 91.4068 1.99999 91.5494 1.99999C91.692 1.99999 91.8347 1.99999 91.9773 1.99999C92.1199 1.99999 92.2625 1.99999 92.4051 1.99999C92.5478 1.99999 92.6904 1.99999 92.833 1.99999C92.9756 1.99999 93.1183 1.99999 93.2609 1.99999C93.4035 1.99999 93.5462 1.99999 93.6888 1.99999C93.8314 1.99999 93.974 1.99999 94.1167 1.99999C94.2593 1.99999 94.4019 1.99999 94.5445 1.99999C94.6872 1.99999 94.8298 1.99999 94.9724 1.99999C95.115 1.99999 95.2576 1.99999 95.4002 1.99999C95.5428 1.99999 95.6854 1.99999 95.828 1.99999C95.9706 1.99999 96.1131 1.99999 96.2557 1.99999C96.3983 1.99999 96.5408 1.99999 96.6834 1.99999C96.8259 1.99999 96.9685 1.99999 97.111 1.99999C97.2535 1.99999 97.396 1.99999 97.5385 1.99999C97.681 1.99999 97.8235 1.99999 97.966 1.99999C98.1085 1.99999 98.2509 1.99999 98.3933 1.99999C98.5358 1.99999 98.6782 1.99999 98.8206 1.99999C98.963 1.99999 99.1054 1.99999 99.2478 1.99999C99.3902 1.99999 99.5325 1.99999 99.6749 1.99999C99.8172 1.99999 99.9595 1.99999 100.102 1.99999C100.244 1.99999 100.386 1.99999 100.529 1.99999C100.671 1.99999 100.813 1.99999 100.955 1.99999C101.098 1.99999 101.24 1.99999 101.382 1.99999C101.524 1.99999 101.666 1.99999 101.808 1.99999C101.95 1.99999 102.092 1.99999 102.234 1.99999C102.377 1.99999 102.519 1.99999 102.661 1.99999C102.803 1.99999 102.944 1.99999 103.086 1.99999C103.228 1.99999 103.37 1.99999 103.512 1.99999C103.654 1.99999 103.796 1.99999 103.938 1.99999C104.079 1.99999 104.221 1.99999 104.363 1.99999C104.505 1.99999 104.646 1.99999 104.788 1.99999C104.93 1.99999 105.071 1.99999 105.213 1.99999C105.355 1.99999 105.496 1.99999 105.638 1.99999C105.779 1.99999 105.921 1.99999 106.062 1.99999C106.204 1.99999 106.345 1.99999 106.486 1.99999C106.628 1.99999 106.769 1.99999 106.91 1.99999C107.052 1.99999 107.193 1.99999 107.334 1.99999C107.475 1.99999 107.616 1.99999 107.757 1.99999C107.898 1.99999 108.04 1.99999 108.181 1.99999C108.322 1.99999 108.463 1.99999 108.603 1.99999C108.744 1.99999 108.885 1.99999 109.026 1.99999C109.167 1.99999 109.308 1.99999 109.448 1.99999C109.589 1.99999 109.73 1.99999 109.87 1.99999C110.011 1.99999 110.152 1.99999 110.292 1.99999C110.433 1.99999 110.573 1.99999 110.713 1.99999C110.854 1.99999 110.994 1.99999 111.134 1.99999C111.275 1.99999 111.415 1.99999 111.555 1.99999C111.695 1.99999 111.835 1.99999 111.976 1.99999C112.116 1.99999 112.256 1.99999 112.396 1.99999C112.536 1.99999 112.675 1.99999 112.815 1.99999C112.955 1.99999 113.095 1.99999 113.235 1.99999C113.374 1.99999 113.514 1.99999 113.653 1.99999C113.793 1.99999 113.933 1.99999 114.072 1.99999C114.211 1.99999 114.351 1.99999 114.49 1.99999C114.629 1.99999 114.769 1.99999 114.908 1.99999C115.047 1.99999 115.186 1.99999 115.325 1.99999C115.464 1.99999 115.603 1.99999 115.742 1.99999C115.881 1.99999 116.02 1.99999 116.159 1.99999C116.297 1.99999 116.436 1.99999 116.575 1.99999C116.713 1.99999 116.852 1.99999 116.99 1.99999C117.129 1.99999 117.267 1.99999 117.406 1.99999C117.544 1.99999 117.682 1.99999 117.82 1.99999C117.958 1.99999 118.097 1.99999 118.235 1.99999C118.373 1.99999 118.51 1.99999 118.648 1.99999C118.786 1.99999 118.924 1.99999 119.062 1.99999C119.199 1.99999 119.337 1.99999 119.474 1.99999C119.612 1.99999 119.749 1.99999 119.887 1.99999C120.024 1.99999 120.161 1.99999 120.299 1.99999C120.436 1.99999 120.573 1.99999 120.71 1.99999C120.847 1.99999 120.984 1.99999 121.121 1.99999C121.258 1.99999 121.394 1.99999 121.531 1.99999C121.668 1.99999 121.804 1.99999 121.941 1.99999C122.077 1.99999 122.214 1.99999 122.35 1.99999C122.486 1.99999 122.623 1.99999 122.759 1.99999C122.895 1.99999 123.031 1.99999 123.167 1.99999C123.303 1.99999 123.439 1.99999 123.574 1.99999C123.71 1.99999 123.846 1.99999 123.981 1.99999C124.117 1.99999 124.252 1.99999 124.388 1.99999C124.523 1.99999 124.658 1.99999 124.793 1.99999C124.929 1.99999 125.064 1.99999 125.199 1.99999C125.333 1.99999 125.468 1.99999 125.603 1.99999C125.738 1.99999 125.873 1.99999 126.007 1.99999C126.142 1.99999 126.276 1.99999 126.41 1.99999C126.545 1.99999 126.679 1.99999 126.813 1.99999C126.947 1.99999 127.081 1.99999 127.215 1.99999C127.349 1.99999 127.483 1.99999 127.617 1.99999C127.75 1.99999 127.884 1.99999 128.017 1.99999C128.151 1.99999 128.284 1.99999 128.417 1.99999C128.551 1.99999 128.684 1.99999 128.817 1.99999C128.95 1.99999 129.083 1.99999 129.216 1.99999C129.348 1.99999 129.481 1.99999 129.614 1.99999C129.746 1.99999 129.879 1.99999 130.011 1.99999C130.143 1.99999 130.276 1.99999 130.408 1.99999C130.54 1.99999 130.672 1.99999 130.804 1.99999C130.936 1.99999 131.067 1.99999 131.199 1.99999C131.331 1.99999 131.462 1.99999 131.593 1.99999C131.725 1.99999 131.856 1.99999 131.987 1.99999C132.118 1.99999 132.249 1.99999 132.38 1.99999C132.511 1.99999 132.642 1.99999 132.773 1.99999C132.903 1.99999 133.034 1.99999 133.164 1.99999C133.294 1.99999 133.425 1.99999 133.555 1.99999C133.685 1.99999 133.815 1.99999 133.945 1.99999C134.075 1.99999 134.204 1.99999 134.334 1.99999C134.464 1.99999 134.593 1.99999 134.722 1.99999C134.852 1.99999 134.981 1.99999 135.11 1.99999C135.239 1.99999 135.368 1.99999 135.497 1.99999C135.626 1.99999 135.754 1.99999 135.883 1.99999C136.011 1.99999 136.14 1.99999 136.268 1.99999C136.396 1.99999 136.524 1.99999 136.652 1.99999C136.78 1.99999 136.908 1.99999 137.036 1.99999C137.164 1.99999 137.291 1.99999 137.418 1.99999C137.546 1.99999 137.673 1.99999 137.8 1.99999C137.927 1.99999 138.054 1.99999 138.181 1.99999C138.308 1.99999 138.435 1.99999 138.561 1.99999C138.688 1.99999 138.814 1.99999 138.94 1.99999C139.067 1.99999 139.193 1.99999 139.319 1.99999C139.445 1.99999 139.571 1.99999 139.696 1.99999C139.822 1.99999 139.947 1.99999 140.073 1.99999C140.198 1.99999 140.323 1.99999 140.448 1.99999C140.573 1.99999 140.698 1.99999 140.823 1.99999C140.948 1.99999 141.072 1.99999 141.197 1.99999C141.321 1.99999 141.445 1.99999 141.569 1.99999C141.694 1.99999 141.818 1.99999 141.941 1.99999C142.065 1.99999 142.189 1.99999 142.312 1.99999C142.436 1.99999 142.559 1.99999 142.682 1.99999C142.805 1.99999 142.928 1.99999 143.051 1.99999C143.174 1.99999 143.297 1.99999 143.419 1.99999C143.542 1.99999 143.664 1.99999 143.786 1.99999C143.908 1.99999 144.03 1.99999 144.152 1.99999C144.274 1.99999 144.396 1.99999 144.517 1.99999C144.639 1.99999 144.76 1.99999 144.881 1.99999C145.003 1.99999 145.124 1.99999 145.244 1.99999C145.365 1.99999 145.486 1.99999 145.606 1.99999C145.727 1.99999 145.847 1.99999 145.967 1.99999C146.088 1.99999 146.208 1.99999 146.327 1.99999C146.447 1.99999 146.567 1.99999 146.686 1.99999C146.806 1.99999 146.925 1.99999 147.044 1.99999C147.163 1.99999 147.282 1.99999 147.401 1.99999C147.52 1.99999 147.638 1.99999 147.757 1.99999C147.875 1.99999 147.993 1.99999 148.111 1.99999C148.229 1.99999 148.347 1.99999 148.465 1.99999C148.582 1.99999 148.7 1.99999 148.817 1.99999C148.934 1.99999 149.052 1.99999 149.169 1.99999C149.285 1.99999 149.402 1.99999 149.519 1.99999C149.635 1.99999 149.752 1.99999 149.868 1.99999C149.984 1.99999 150.1 1.99999 150.216 1.99999C150.332 1.99999 150.447 1.99999 150.563 1.99999C150.678 1.99999 150.793 1.99999 150.908 1.99999C151.023 1.99999 151.138 1.99999 151.253 1.99999C151.368 1.99999 151.482 1.99999 151.596 1.99999C151.711 1.99999 151.825 1.99999 151.939 1.99999C152.052 1.99999 152.166 1.99999 152.28 1.99999C152.393 1.99999 152.506 1.99999 152.62 1.99999C152.733 1.99999 152.845 1.99999 152.958 1.99999C153.071 1.99999 153.183 1.99999 153.296 1.99999C153.408 1.99999 153.52 1.99999 153.632 1.99999C153.744 1.99999 153.856 1.99999 153.967 1.99999C154.079 1.99999 154.19 1.99999 154.301 1.99999C154.412 1.99999 154.523 1.99999 154.633 1.99999C154.744 1.99999 154.855 1.99999 154.965 1.99999C155.075 1.99999 155.185 1.99999 155.295 1.99999C155.405 1.99999 155.514 1.99999 155.624 1.99999C155.733 1.99999 155.842 1.99999 155.951 1.99999C156.06 1.99999 156.169 1.99999 156.278 1.99999C156.386 1.99999 156.495 1.99999 156.603 1.99999C156.711 1.99999 156.819 1.99999 156.927 1.99999C157.034 1.99999 157.142 1.99999 157.249 1.99999C157.356 1.99999 157.463 1.99999 157.57 1.99999C157.677 1.99999 157.784 1.99999 157.89 1.99999C157.997 1.99999 158.103 1.99999 158.209 1.99999C158.315 1.99999 158.42 1.99999 158.526 1.99999C158.631 1.99999 158.737 1.99999 158.842 1.99999C158.947 1.99999 159.052 1.99999 159.156 1.99999C159.261 1.99999 159.365 1.99999 159.47 1.99999C159.574 1.99999 159.678 1.99999 159.781 1.99999C159.885 1.99999 159.989 1.99999 160.092 1.99999C160.195 1.99999 160.298 1.99999 160.401 1.99999C160.504 1.99999 160.606 1.99999 160.709 1.99999C160.811 1.99999 160.913 1.99999 161.015 1.99999C161.117 1.99999 161.219 1.99999 161.32 1.99999C161.421 1.99999 161.523 1.99999 161.623 1.99999C161.724 1.99999 161.825 1.99999 161.926 1.99999C162.026 1.99999 162.126 1.99999 162.226 1.99999C162.326 1.99999 162.426 1.99999 162.525 1.99999C162.625 1.99999 162.724 1.99999 162.823 1.99999C162.922 1.99999 163.021 1.99999 163.12 1.99999C163.218 1.99999 163.317 1.99999 163.415 1.99999C163.513 1.99999 163.61 1.99999 163.708 1.99999C163.806 1.99999 163.903 1.99999 164 1.99999V-2.00001Z" fill="white" mask="url(#path-1-inside-1)"/>
</svg>
