<svg width="30" height="30" viewBox="0 0 30 30" fill="none" xmlns="http://www.w3.org/2000/svg">
<path opacity="0.5" fill-rule="evenodd" clip-rule="evenodd" d="M22.4762 0H7.50001C3.38091 0 -1.52588e-05 3.38086 -1.52588e-05 7.52368V22.5C-1.52588e-05 26.619 3.38091 29.9999 7.50001 29.9999H22.4762C26.6191 29.9999 30 26.619 30 22.4762V7.52368C30 3.38086 26.6191 0 22.4762 0ZM19.0238 14.9997H16.1905V24.2855H12.6191V14.9997H10.7143V11.1903H12.3809V9.57149C12.3809 8.04755 13.1429 5.64259 16.3571 5.64259H19.2857V8.8095H17.2143C16.881 8.8095 16.4285 9.02381 16.4285 9.76195V11.1903H19.3571L19.0238 14.9997Z" fill="white"/>
</svg>
