<svg width="30" height="30" viewBox="0 0 30 30" fill="none" xmlns="http://www.w3.org/2000/svg">
<path opacity="0.5" fill-rule="evenodd" clip-rule="evenodd" d="M22.4584 9.59635e-05H7.51782C3.37822 9.59635e-05 -8.59499e-05 3.38096 -8.59499e-05 7.52378V22.5001C-8.59499e-05 26.6191 3.37822 30 7.51782 30H22.4821C26.6218 30 30.0001 26.6191 30.0001 22.4763V7.52378C29.9763 3.38096 26.598 9.59635e-05 22.4584 9.59635e-05ZM9.99207 24.2856H5.7097V11.9047H9.99207V24.2856ZM7.82709 10.0002C6.61376 10.0002 5.6383 9.0239 5.6383 7.80954C5.6383 6.59514 6.61376 5.61888 7.82709 5.61888C9.04038 5.61888 10.0158 6.59514 10.0158 7.80954C9.99207 9.0239 9.01661 10.0002 7.82709 10.0002ZM24.2903 24.2856H24.2665H20.6979V18.2858C20.6979 16.8333 20.5075 14.976 18.5329 14.976C16.5107 14.976 16.1776 16.5476 16.1776 18.1906V24.2856H12.6091V11.9047H15.9397V13.5715H16.0349C16.5583 12.6191 17.7716 11.8809 19.6749 11.8809C23.6004 11.8809 24.2903 14.143 24.2903 17.5001V24.2856Z" fill="white"/>
</svg>
