<svg width="30" height="30" viewBox="0 0 30 30" fill="none" xmlns="http://www.w3.org/2000/svg">
<path opacity="0.5" fill-rule="evenodd" clip-rule="evenodd" d="M22.4583 9.59635e-05H7.51782C3.37819 9.59635e-05 -1.80006e-05 3.38096 -1.80006e-05 7.52378V22.5001C-1.80006e-05 26.6191 3.37819 30 7.51782 30H22.4821C26.6217 30 30.0001 26.6191 30.0001 22.4763V7.52378C29.9763 3.38096 26.598 9.59635e-05 22.4583 9.59635e-05ZM22.4346 11.238C22.4346 11.4047 22.4346 11.5714 22.4346 11.738C22.4346 16.7381 18.5805 22.5001 11.5147 22.5001C9.34971 22.5001 7.32753 21.881 5.63837 20.8095C5.94764 20.8333 6.2331 20.8571 6.54243 20.8571C8.35045 20.8571 9.99204 20.2618 11.3005 19.2379C9.61141 19.2141 8.20772 18.1192 7.70809 16.619C7.94602 16.6667 8.18395 16.6905 8.42185 16.6905C8.77875 16.6905 9.13554 16.6428 9.44488 16.5476C7.73196 16.1904 6.42347 14.6665 6.42347 12.8334V12.7858C6.89923 13.0715 7.51782 13.2382 8.13639 13.262C7.11336 12.5953 6.42347 11.4285 6.42347 10.1189C6.42347 9.4287 6.61376 8.78579 6.94686 8.2143C8.85008 10.4998 11.6574 12 14.8453 12.1667C14.7739 11.8809 14.7502 11.5952 14.7502 11.3094C14.7502 9.2144 16.4631 7.52378 18.5805 7.52378C19.6749 7.52378 20.6741 7.97619 21.3878 8.71437C22.2681 8.54768 23.0769 8.23814 23.8145 7.78573C23.5289 8.66675 22.9104 9.4049 22.1253 9.88112C22.9104 9.78589 23.6479 9.59539 24.3379 9.28582C23.8145 10.0474 23.1721 10.7141 22.4346 11.238Z" fill="white"/>
</svg>
