<svg width="22" height="23" viewBox="0 0 22 23" fill="none" xmlns="http://www.w3.org/2000/svg">
<path fill-rule="evenodd" clip-rule="evenodd" d="M0.152504 0.14515L0.144272 0.153575C0.0402319 0.26275 0.00727999 0.429425 0.059384 0.57265L7.24306 20.1523C7.29783 20.3014 7.4348 20.4021 7.58828 20.4047C7.74166 20.4076 7.88139 20.3102 7.93897 20.1636L10.2212 14.417L17.3282 21.863C17.5418 22.0869 17.8898 22.0869 18.1035 21.863C18.8651 21.0652 20.109 19.7617 20.8706 18.9639C21.0844 18.7401 21.0844 18.3756 20.8706 18.1514L13.7665 10.7057L19.2487 8.3143C19.3912 8.2513 19.4816 8.1077 19.4788 7.94687C19.4761 7.78642 19.3802 7.64283 19.2377 7.58533L0.55256 0.056125C0.412832 0.00155008 0.256616 0.035975 0.152504 0.14515Z" fill="white"/>
</svg>
