<svg width="254" height="180" viewBox="0 0 254 180" fill="none" xmlns="http://www.w3.org/2000/svg">
<mask id="path-1-inside-1" fill="white">
<path fill-rule="evenodd" clip-rule="evenodd" d="M90.0001 180C40.2943 180 -6.40154e-05 139.705 -6.40154e-05 90C-6.40154e-05 40.2945 40.2943 -9.20296e-05 90.0001 -9.20296e-05C139.706 -9.20296e-05 254 -9.20296e-05 254 -9.20296e-05"/>
</mask>
<path fill-rule="evenodd" clip-rule="evenodd" d="M90.0001 180C40.2943 180 -6.40154e-05 139.705 -6.40154e-05 90C-6.40154e-05 40.2945 40.2943 -9.20296e-05 90.0001 -9.20296e-05C139.706 -9.20296e-05 254 -9.20296e-05 254 -9.20296e-05" fill="black" fill-opacity="0.01"/>
<path d="M90.0001 178C41.3989 178 1.99994 138.601 1.99994 90H-2.00006C-2.00006 140.81 39.1898 182 90.0001 182V178ZM1.99994 90C1.99994 41.3991 41.3989 1.99991 90.0001 1.99991V-2.00009C39.1898 -2.00009 -2.00006 39.19 -2.00006 90H1.99994ZM90.0001 1.99991C90.0971 1.99991 90.1945 1.99991 90.292 1.99991C90.3896 1.99991 90.4874 1.99991 90.5855 1.99991C90.6836 1.99991 90.7819 1.99991 90.8804 1.99991C90.979 1.99991 91.0777 1.99991 91.1768 1.99991C91.2758 1.99991 91.3751 1.99991 91.4746 1.99991C91.5741 1.99991 91.6739 1.99991 91.7738 1.99991C91.8738 1.99991 91.9741 1.99991 92.0745 1.99991C92.175 1.99991 92.2757 1.99991 92.3766 1.99991C92.4776 1.99991 92.5787 1.99991 92.6801 1.99991C92.7816 1.99991 92.8832 1.99991 92.9851 1.99991C93.087 1.99991 93.1891 1.99991 93.2914 1.99991C93.3937 1.99991 93.4963 1.99991 93.5991 1.99991C93.7019 1.99991 93.8049 1.99991 93.9082 1.99991C94.0115 1.99991 94.115 1.99991 94.2187 1.99991C94.3224 1.99991 94.4263 1.99991 94.5305 1.99991C94.6347 1.99991 94.7391 1.99991 94.8437 1.99991C94.9483 1.99991 95.0532 1.99991 95.1583 1.99991C95.2633 1.99991 95.3686 1.99991 95.4742 1.99991C95.5797 1.99991 95.6854 1.99991 95.7914 1.99991C95.8973 1.99991 96.0035 1.99991 96.1099 1.99991C96.2163 1.99991 96.323 1.99991 96.4298 1.99991C96.5366 1.99991 96.6437 1.99991 96.751 1.99991C96.8582 1.99991 96.9657 1.99991 97.0734 1.99991C97.1812 1.99991 97.2891 1.99991 97.3972 1.99991C97.5054 1.99991 97.6137 1.99991 97.7223 1.99991C97.8309 1.99991 97.9396 1.99991 98.0486 1.99991C98.1576 1.99991 98.2668 1.99991 98.3762 1.99991C98.4856 1.99991 98.5953 1.99991 98.7051 1.99991C98.8149 1.99991 98.925 1.99991 99.0352 1.99991C99.1455 1.99991 99.256 1.99991 99.3666 1.99991C99.4773 1.99991 99.5882 1.99991 99.6992 1.99991C99.8103 1.99991 99.9216 1.99991 100.033 1.99991C100.145 1.99991 100.256 1.99991 100.368 1.99991C100.48 1.99991 100.592 1.99991 100.704 1.99991C100.817 1.99991 100.929 1.99991 101.042 1.99991C101.155 1.99991 101.267 1.99991 101.381 1.99991C101.494 1.99991 101.607 1.99991 101.72 1.99991C101.834 1.99991 101.948 1.99991 102.062 1.99991C102.175 1.99991 102.289 1.99991 102.404 1.99991C102.518 1.99991 102.632 1.99991 102.747 1.99991C102.862 1.99991 102.977 1.99991 103.092 1.99991C103.207 1.99991 103.322 1.99991 103.437 1.99991C103.553 1.99991 103.668 1.99991 103.784 1.99991C103.9 1.99991 104.016 1.99991 104.132 1.99991C104.248 1.99991 104.365 1.99991 104.481 1.99991C104.598 1.99991 104.715 1.99991 104.832 1.99991C104.949 1.99991 105.066 1.99991 105.183 1.99991C105.3 1.99991 105.418 1.99991 105.535 1.99991C105.653 1.99991 105.771 1.99991 105.889 1.99991C106.007 1.99991 106.125 1.99991 106.244 1.99991C106.362 1.99991 106.48 1.99991 106.599 1.99991C106.718 1.99991 106.837 1.99991 106.956 1.99991C107.075 1.99991 107.194 1.99991 107.314 1.99991C107.433 1.99991 107.553 1.99991 107.673 1.99991C107.793 1.99991 107.912 1.99991 108.033 1.99991C108.153 1.99991 108.273 1.99991 108.394 1.99991C108.514 1.99991 108.635 1.99991 108.756 1.99991C108.876 1.99991 108.997 1.99991 109.119 1.99991C109.24 1.99991 109.361 1.99991 109.483 1.99991C109.604 1.99991 109.726 1.99991 109.848 1.99991C109.97 1.99991 110.092 1.99991 110.214 1.99991C110.336 1.99991 110.458 1.99991 110.581 1.99991C110.703 1.99991 110.826 1.99991 110.949 1.99991C111.072 1.99991 111.195 1.99991 111.318 1.99991C111.441 1.99991 111.564 1.99991 111.688 1.99991C111.811 1.99991 111.935 1.99991 112.059 1.99991C112.183 1.99991 112.306 1.99991 112.431 1.99991C112.555 1.99991 112.679 1.99991 112.803 1.99991C112.928 1.99991 113.052 1.99991 113.177 1.99991C113.302 1.99991 113.427 1.99991 113.552 1.99991C113.677 1.99991 113.802 1.99991 113.927 1.99991C114.053 1.99991 114.178 1.99991 114.304 1.99991C114.43 1.99991 114.555 1.99991 114.681 1.99991C114.807 1.99991 114.933 1.99991 115.06 1.99991C115.186 1.99991 115.312 1.99991 115.439 1.99991C115.565 1.99991 115.692 1.99991 115.819 1.99991C115.946 1.99991 116.073 1.99991 116.2 1.99991C116.327 1.99991 116.454 1.99991 116.582 1.99991C116.709 1.99991 116.837 1.99991 116.964 1.99991C117.092 1.99991 117.22 1.99991 117.348 1.99991C117.476 1.99991 117.604 1.99991 117.732 1.99991C117.86 1.99991 117.989 1.99991 118.117 1.99991C118.246 1.99991 118.374 1.99991 118.503 1.99991C118.632 1.99991 118.761 1.99991 118.89 1.99991C119.019 1.99991 119.148 1.99991 119.278 1.99991C119.407 1.99991 119.536 1.99991 119.666 1.99991C119.796 1.99991 119.925 1.99991 120.055 1.99991C120.185 1.99991 120.315 1.99991 120.445 1.99991C120.575 1.99991 120.706 1.99991 120.836 1.99991C120.966 1.99991 121.097 1.99991 121.228 1.99991C121.358 1.99991 121.489 1.99991 121.62 1.99991C121.751 1.99991 121.882 1.99991 122.013 1.99991C122.144 1.99991 122.275 1.99991 122.407 1.99991C122.538 1.99991 122.67 1.99991 122.801 1.99991C122.933 1.99991 123.065 1.99991 123.196 1.99991C123.328 1.99991 123.46 1.99991 123.592 1.99991C123.724 1.99991 123.857 1.99991 123.989 1.99991C124.121 1.99991 124.254 1.99991 124.386 1.99991C124.519 1.99991 124.652 1.99991 124.784 1.99991C124.917 1.99991 125.05 1.99991 125.183 1.99991C125.316 1.99991 125.449 1.99991 125.583 1.99991C125.716 1.99991 125.849 1.99991 125.983 1.99991C126.116 1.99991 126.25 1.99991 126.383 1.99991C126.517 1.99991 126.651 1.99991 126.785 1.99991C126.919 1.99991 127.053 1.99991 127.187 1.99991C127.321 1.99991 127.455 1.99991 127.59 1.99991C127.724 1.99991 127.858 1.99991 127.993 1.99991C128.128 1.99991 128.262 1.99991 128.397 1.99991C128.532 1.99991 128.667 1.99991 128.802 1.99991C128.937 1.99991 129.072 1.99991 129.207 1.99991C129.342 1.99991 129.477 1.99991 129.613 1.99991C129.748 1.99991 129.883 1.99991 130.019 1.99991C130.154 1.99991 130.29 1.99991 130.426 1.99991C130.562 1.99991 130.697 1.99991 130.833 1.99991C130.969 1.99991 131.105 1.99991 131.241 1.99991C131.378 1.99991 131.514 1.99991 131.65 1.99991C131.786 1.99991 131.923 1.99991 132.059 1.99991C132.196 1.99991 132.332 1.99991 132.469 1.99991C132.606 1.99991 132.742 1.99991 132.879 1.99991C133.016 1.99991 133.153 1.99991 133.29 1.99991C133.427 1.99991 133.564 1.99991 133.701 1.99991C133.839 1.99991 133.976 1.99991 134.113 1.99991C134.251 1.99991 134.388 1.99991 134.526 1.99991C134.663 1.99991 134.801 1.99991 134.938 1.99991C135.076 1.99991 135.214 1.99991 135.352 1.99991C135.49 1.99991 135.628 1.99991 135.766 1.99991C135.904 1.99991 136.042 1.99991 136.18 1.99991C136.318 1.99991 136.456 1.99991 136.595 1.99991C136.733 1.99991 136.871 1.99991 137.01 1.99991C137.148 1.99991 137.287 1.99991 137.425 1.99991C137.564 1.99991 137.703 1.99991 137.841 1.99991C137.98 1.99991 138.119 1.99991 138.258 1.99991C138.397 1.99991 138.536 1.99991 138.675 1.99991C138.814 1.99991 138.953 1.99991 139.092 1.99991C139.231 1.99991 139.371 1.99991 139.51 1.99991C139.649 1.99991 139.789 1.99991 139.928 1.99991C140.068 1.99991 140.207 1.99991 140.347 1.99991C140.486 1.99991 140.626 1.99991 140.766 1.99991C140.905 1.99991 141.045 1.99991 141.185 1.99991C141.325 1.99991 141.465 1.99991 141.605 1.99991C141.744 1.99991 141.884 1.99991 142.025 1.99991C142.165 1.99991 142.305 1.99991 142.445 1.99991C142.585 1.99991 142.725 1.99991 142.866 1.99991C143.006 1.99991 143.146 1.99991 143.287 1.99991C143.427 1.99991 143.568 1.99991 143.708 1.99991C143.849 1.99991 143.989 1.99991 144.13 1.99991C144.27 1.99991 144.411 1.99991 144.552 1.99991C144.692 1.99991 144.833 1.99991 144.974 1.99991C145.115 1.99991 145.256 1.99991 145.397 1.99991C145.538 1.99991 145.679 1.99991 145.82 1.99991C145.961 1.99991 146.102 1.99991 146.243 1.99991C146.384 1.99991 146.525 1.99991 146.666 1.99991C146.807 1.99991 146.949 1.99991 147.09 1.99991C147.231 1.99991 147.372 1.99991 147.514 1.99991C147.655 1.99991 147.797 1.99991 147.938 1.99991C148.079 1.99991 148.221 1.99991 148.362 1.99991C148.504 1.99991 148.646 1.99991 148.787 1.99991C148.929 1.99991 149.07 1.99991 149.212 1.99991C149.354 1.99991 149.495 1.99991 149.637 1.99991C149.779 1.99991 149.921 1.99991 150.062 1.99991C150.204 1.99991 150.346 1.99991 150.488 1.99991C150.63 1.99991 150.772 1.99991 150.914 1.99991C151.056 1.99991 151.198 1.99991 151.34 1.99991C151.482 1.99991 151.624 1.99991 151.766 1.99991C151.908 1.99991 152.05 1.99991 152.192 1.99991C152.334 1.99991 152.476 1.99991 152.618 1.99991C152.76 1.99991 152.903 1.99991 153.045 1.99991C153.187 1.99991 153.329 1.99991 153.471 1.99991C153.614 1.99991 153.756 1.99991 153.898 1.99991C154.041 1.99991 154.183 1.99991 154.325 1.99991C154.468 1.99991 154.61 1.99991 154.752 1.99991C154.895 1.99991 155.037 1.99991 155.179 1.99991C155.322 1.99991 155.464 1.99991 155.607 1.99991C155.749 1.99991 155.892 1.99991 156.034 1.99991C156.177 1.99991 156.319 1.99991 156.462 1.99991C156.604 1.99991 156.747 1.99991 156.889 1.99991C157.032 1.99991 157.174 1.99991 157.317 1.99991C157.459 1.99991 157.602 1.99991 157.744 1.99991C157.887 1.99991 158.03 1.99991 158.172 1.99991C158.315 1.99991 158.457 1.99991 158.6 1.99991C158.742 1.99991 158.885 1.99991 159.028 1.99991C159.17 1.99991 159.313 1.99991 159.456 1.99991C159.598 1.99991 159.741 1.99991 159.883 1.99991C160.026 1.99991 160.169 1.99991 160.311 1.99991C160.454 1.99991 160.597 1.99991 160.739 1.99991C160.882 1.99991 161.024 1.99991 161.167 1.99991C161.31 1.99991 161.452 1.99991 161.595 1.99991C161.738 1.99991 161.88 1.99991 162.023 1.99991C162.165 1.99991 162.308 1.99991 162.451 1.99991C162.593 1.99991 162.736 1.99991 162.878 1.99991C163.021 1.99991 163.164 1.99991 163.306 1.99991C163.449 1.99991 163.591 1.99991 163.734 1.99991C163.876 1.99991 164.019 1.99991 164.162 1.99991C164.304 1.99991 164.447 1.99991 164.589 1.99991C164.732 1.99991 164.874 1.99991 165.017 1.99991C165.159 1.99991 165.302 1.99991 165.444 1.99991C165.587 1.99991 165.729 1.99991 165.871 1.99991C166.014 1.99991 166.156 1.99991 166.299 1.99991C166.441 1.99991 166.583 1.99991 166.726 1.99991C166.868 1.99991 167.011 1.99991 167.153 1.99991C167.295 1.99991 167.438 1.99991 167.58 1.99991C167.722 1.99991 167.864 1.99991 168.007 1.99991C168.149 1.99991 168.291 1.99991 168.433 1.99991C168.575 1.99991 168.718 1.99991 168.86 1.99991C169.002 1.99991 169.144 1.99991 169.286 1.99991C169.428 1.99991 169.57 1.99991 169.712 1.99991C169.854 1.99991 169.996 1.99991 170.138 1.99991C170.28 1.99991 170.422 1.99991 170.564 1.99991C170.706 1.99991 170.848 1.99991 170.99 1.99991C171.132 1.99991 171.273 1.99991 171.415 1.99991C171.557 1.99991 171.699 1.99991 171.841 1.99991C171.982 1.99991 172.124 1.99991 172.266 1.99991C172.407 1.99991 172.549 1.99991 172.69 1.99991C172.832 1.99991 172.974 1.99991 173.115 1.99991C173.257 1.99991 173.398 1.99991 173.539 1.99991C173.681 1.99991 173.822 1.99991 173.964 1.99991C174.105 1.99991 174.246 1.99991 174.387 1.99991C174.529 1.99991 174.67 1.99991 174.811 1.99991C174.952 1.99991 175.093 1.99991 175.234 1.99991C175.375 1.99991 175.517 1.99991 175.658 1.99991C175.798 1.99991 175.939 1.99991 176.08 1.99991C176.221 1.99991 176.362 1.99991 176.503 1.99991C176.644 1.99991 176.784 1.99991 176.925 1.99991C177.066 1.99991 177.206 1.99991 177.347 1.99991C177.488 1.99991 177.628 1.99991 177.769 1.99991C177.909 1.99991 178.05 1.99991 178.19 1.99991C178.33 1.99991 178.471 1.99991 178.611 1.99991C178.751 1.99991 178.891 1.99991 179.031 1.99991C179.172 1.99991 179.312 1.99991 179.452 1.99991C179.592 1.99991 179.732 1.99991 179.872 1.99991C180.012 1.99991 180.151 1.99991 180.291 1.99991C180.431 1.99991 180.571 1.99991 180.71 1.99991C180.85 1.99991 180.99 1.99991 181.129 1.99991C181.269 1.99991 181.408 1.99991 181.548 1.99991C181.687 1.99991 181.826 1.99991 181.966 1.99991C182.105 1.99991 182.244 1.99991 182.383 1.99991C182.522 1.99991 182.662 1.99991 182.801 1.99991C182.94 1.99991 183.079 1.99991 183.217 1.99991C183.356 1.99991 183.495 1.99991 183.634 1.99991C183.773 1.99991 183.911 1.99991 184.05 1.99991C184.188 1.99991 184.327 1.99991 184.465 1.99991C184.604 1.99991 184.742 1.99991 184.88 1.99991C185.019 1.99991 185.157 1.99991 185.295 1.99991C185.433 1.99991 185.571 1.99991 185.709 1.99991C185.847 1.99991 185.985 1.99991 186.123 1.99991C186.261 1.99991 186.398 1.99991 186.536 1.99991C186.674 1.99991 186.811 1.99991 186.949 1.99991C187.086 1.99991 187.224 1.99991 187.361 1.99991C187.498 1.99991 187.635 1.99991 187.773 1.99991C187.91 1.99991 188.047 1.99991 188.184 1.99991C188.321 1.99991 188.458 1.99991 188.594 1.99991C188.731 1.99991 188.868 1.99991 189.005 1.99991C189.141 1.99991 189.278 1.99991 189.414 1.99991C189.551 1.99991 189.687 1.99991 189.823 1.99991C189.959 1.99991 190.096 1.99991 190.232 1.99991C190.368 1.99991 190.504 1.99991 190.64 1.99991C190.775 1.99991 190.911 1.99991 191.047 1.99991C191.183 1.99991 191.318 1.99991 191.454 1.99991C191.589 1.99991 191.725 1.99991 191.86 1.99991C191.995 1.99991 192.131 1.99991 192.266 1.99991C192.401 1.99991 192.536 1.99991 192.671 1.99991C192.806 1.99991 192.94 1.99991 193.075 1.99991C193.21 1.99991 193.344 1.99991 193.479 1.99991C193.613 1.99991 193.748 1.99991 193.882 1.99991C194.016 1.99991 194.15 1.99991 194.285 1.99991C194.419 1.99991 194.553 1.99991 194.686 1.99991C194.82 1.99991 194.954 1.99991 195.088 1.99991C195.221 1.99991 195.355 1.99991 195.488 1.99991C195.622 1.99991 195.755 1.99991 195.888 1.99991C196.021 1.99991 196.154 1.99991 196.287 1.99991C196.42 1.99991 196.553 1.99991 196.686 1.99991C196.819 1.99991 196.951 1.99991 197.084 1.99991C197.216 1.99991 197.349 1.99991 197.481 1.99991C197.613 1.99991 197.745 1.99991 197.878 1.99991C198.01 1.99991 198.141 1.99991 198.273 1.99991C198.405 1.99991 198.537 1.99991 198.668 1.99991C198.8 1.99991 198.931 1.99991 199.063 1.99991C199.194 1.99991 199.325 1.99991 199.456 1.99991C199.587 1.99991 199.718 1.99991 199.849 1.99991C199.98 1.99991 200.111 1.99991 200.241 1.99991C200.372 1.99991 200.502 1.99991 200.632 1.99991C200.763 1.99991 200.893 1.99991 201.023 1.99991C201.153 1.99991 201.283 1.99991 201.413 1.99991C201.543 1.99991 201.672 1.99991 201.802 1.99991C201.931 1.99991 202.061 1.99991 202.19 1.99991C202.319 1.99991 202.448 1.99991 202.577 1.99991C202.706 1.99991 202.835 1.99991 202.964 1.99991C203.093 1.99991 203.221 1.99991 203.35 1.99991C203.478 1.99991 203.607 1.99991 203.735 1.99991C203.863 1.99991 203.991 1.99991 204.119 1.99991C204.247 1.99991 204.374 1.99991 204.502 1.99991C204.63 1.99991 204.757 1.99991 204.885 1.99991C205.012 1.99991 205.139 1.99991 205.266 1.99991C205.393 1.99991 205.52 1.99991 205.647 1.99991C205.774 1.99991 205.9 1.99991 206.027 1.99991C206.153 1.99991 206.279 1.99991 206.406 1.99991C206.532 1.99991 206.658 1.99991 206.784 1.99991C206.91 1.99991 207.035 1.99991 207.161 1.99991C207.286 1.99991 207.412 1.99991 207.537 1.99991C207.662 1.99991 207.787 1.99991 207.912 1.99991C208.037 1.99991 208.162 1.99991 208.287 1.99991C208.411 1.99991 208.536 1.99991 208.66 1.99991C208.785 1.99991 208.909 1.99991 209.033 1.99991C209.157 1.99991 209.281 1.99991 209.405 1.99991C209.528 1.99991 209.652 1.99991 209.775 1.99991C209.899 1.99991 210.022 1.99991 210.145 1.99991C210.268 1.99991 210.391 1.99991 210.514 1.99991C210.636 1.99991 210.759 1.99991 210.881 1.99991C211.004 1.99991 211.126 1.99991 211.248 1.99991C211.37 1.99991 211.492 1.99991 211.614 1.99991C211.736 1.99991 211.857 1.99991 211.979 1.99991C212.1 1.99991 212.221 1.99991 212.342 1.99991C212.464 1.99991 212.584 1.99991 212.705 1.99991C212.826 1.99991 212.947 1.99991 213.067 1.99991C213.187 1.99991 213.308 1.99991 213.428 1.99991C213.548 1.99991 213.668 1.99991 213.787 1.99991C213.907 1.99991 214.027 1.99991 214.146 1.99991C214.265 1.99991 214.384 1.99991 214.503 1.99991C214.622 1.99991 214.741 1.99991 214.86 1.99991C214.979 1.99991 215.097 1.99991 215.215 1.99991C215.334 1.99991 215.452 1.99991 215.57 1.99991C215.688 1.99991 215.805 1.99991 215.923 1.99991C216.041 1.99991 216.158 1.99991 216.275 1.99991C216.392 1.99991 216.509 1.99991 216.626 1.99991C216.743 1.99991 216.86 1.99991 216.976 1.99991C217.093 1.99991 217.209 1.99991 217.325 1.99991C217.441 1.99991 217.557 1.99991 217.673 1.99991C217.788 1.99991 217.904 1.99991 218.019 1.99991C218.134 1.99991 218.25 1.99991 218.365 1.99991C218.479 1.99991 218.594 1.99991 218.709 1.99991C218.823 1.99991 218.938 1.99991 219.052 1.99991C219.166 1.99991 219.28 1.99991 219.394 1.99991C219.508 1.99991 219.621 1.99991 219.735 1.99991C219.848 1.99991 219.961 1.99991 220.074 1.99991C220.187 1.99991 220.3 1.99991 220.412 1.99991C220.525 1.99991 220.637 1.99991 220.75 1.99991C220.862 1.99991 220.974 1.99991 221.086 1.99991C221.197 1.99991 221.309 1.99991 221.42 1.99991C221.532 1.99991 221.643 1.99991 221.754 1.99991C221.865 1.99991 221.976 1.99991 222.086 1.99991C222.197 1.99991 222.307 1.99991 222.417 1.99991C222.527 1.99991 222.637 1.99991 222.747 1.99991C222.857 1.99991 222.966 1.99991 223.075 1.99991C223.185 1.99991 223.294 1.99991 223.403 1.99991C223.512 1.99991 223.62 1.99991 223.729 1.99991C223.837 1.99991 223.945 1.99991 224.053 1.99991C224.161 1.99991 224.269 1.99991 224.377 1.99991C224.484 1.99991 224.592 1.99991 224.699 1.99991C224.806 1.99991 224.913 1.99991 225.02 1.99991C225.127 1.99991 225.233 1.99991 225.339 1.99991C225.446 1.99991 225.552 1.99991 225.658 1.99991C225.763 1.99991 225.869 1.99991 225.974 1.99991C226.08 1.99991 226.185 1.99991 226.29 1.99991C226.395 1.99991 226.5 1.99991 226.604 1.99991C226.709 1.99991 226.813 1.99991 226.917 1.99991C227.021 1.99991 227.125 1.99991 227.228 1.99991C227.332 1.99991 227.435 1.99991 227.539 1.99991C227.642 1.99991 227.745 1.99991 227.847 1.99991C227.95 1.99991 228.052 1.99991 228.155 1.99991C228.257 1.99991 228.359 1.99991 228.461 1.99991C228.562 1.99991 228.664 1.99991 228.765 1.99991C228.866 1.99991 228.967 1.99991 229.068 1.99991C229.169 1.99991 229.27 1.99991 229.37 1.99991C229.47 1.99991 229.57 1.99991 229.67 1.99991C229.77 1.99991 229.87 1.99991 229.969 1.99991C230.069 1.99991 230.168 1.99991 230.267 1.99991C230.366 1.99991 230.464 1.99991 230.563 1.99991C230.661 1.99991 230.759 1.99991 230.857 1.99991C230.955 1.99991 231.053 1.99991 231.15 1.99991C231.248 1.99991 231.345 1.99991 231.442 1.99991C231.539 1.99991 231.635 1.99991 231.732 1.99991C231.828 1.99991 231.925 1.99991 232.02 1.99991C232.116 1.99991 232.212 1.99991 232.308 1.99991C232.403 1.99991 232.498 1.99991 232.593 1.99991C232.688 1.99991 232.783 1.99991 232.877 1.99991C232.972 1.99991 233.066 1.99991 233.16 1.99991C233.254 1.99991 233.348 1.99991 233.441 1.99991C233.534 1.99991 233.628 1.99991 233.72 1.99991C233.813 1.99991 233.906 1.99991 233.998 1.99991C234.091 1.99991 234.183 1.99991 234.275 1.99991C234.367 1.99991 234.458 1.99991 234.55 1.99991C234.641 1.99991 234.732 1.99991 234.823 1.99991C234.914 1.99991 235.004 1.99991 235.095 1.99991C235.185 1.99991 235.275 1.99991 235.365 1.99991C235.455 1.99991 235.544 1.99991 235.633 1.99991C235.723 1.99991 235.812 1.99991 235.9 1.99991C235.989 1.99991 236.078 1.99991 236.166 1.99991C236.254 1.99991 236.342 1.99991 236.429 1.99991C236.517 1.99991 236.604 1.99991 236.692 1.99991C236.779 1.99991 236.865 1.99991 236.952 1.99991C237.039 1.99991 237.125 1.99991 237.211 1.99991C237.297 1.99991 237.383 1.99991 237.468 1.99991C237.553 1.99991 237.639 1.99991 237.723 1.99991C237.808 1.99991 237.893 1.99991 237.977 1.99991C238.062 1.99991 238.146 1.99991 238.229 1.99991C238.313 1.99991 238.397 1.99991 238.48 1.99991C238.563 1.99991 238.646 1.99991 238.729 1.99991C238.811 1.99991 238.894 1.99991 238.976 1.99991C239.058 1.99991 239.14 1.99991 239.221 1.99991C239.303 1.99991 239.384 1.99991 239.465 1.99991C239.546 1.99991 239.627 1.99991 239.707 1.99991C239.787 1.99991 239.867 1.99991 239.947 1.99991C240.027 1.99991 240.107 1.99991 240.186 1.99991C240.265 1.99991 240.344 1.99991 240.423 1.99991C240.501 1.99991 240.579 1.99991 240.658 1.99991C240.736 1.99991 240.813 1.99991 240.891 1.99991C240.968 1.99991 241.045 1.99991 241.122 1.99991C241.199 1.99991 241.276 1.99991 241.352 1.99991C241.428 1.99991 241.504 1.99991 241.58 1.99991C241.656 1.99991 241.731 1.99991 241.806 1.99991C241.881 1.99991 241.956 1.99991 242.03 1.99991C242.105 1.99991 242.179 1.99991 242.253 1.99991C242.327 1.99991 242.4 1.99991 242.474 1.99991C242.547 1.99991 242.62 1.99991 242.692 1.99991C242.765 1.99991 242.837 1.99991 242.91 1.99991C242.982 1.99991 243.053 1.99991 243.125 1.99991C243.196 1.99991 243.267 1.99991 243.338 1.99991C243.409 1.99991 243.479 1.99991 243.55 1.99991C243.62 1.99991 243.69 1.99991 243.759 1.99991C243.829 1.99991 243.898 1.99991 243.967 1.99991C244.036 1.99991 244.105 1.99991 244.173 1.99991C244.241 1.99991 244.309 1.99991 244.377 1.99991C244.445 1.99991 244.512 1.99991 244.579 1.99991C244.646 1.99991 244.713 1.99991 244.779 1.99991C244.846 1.99991 244.912 1.99991 244.977 1.99991C245.043 1.99991 245.109 1.99991 245.174 1.99991C245.239 1.99991 245.304 1.99991 245.368 1.99991C245.433 1.99991 245.497 1.99991 245.561 1.99991C245.625 1.99991 245.688 1.99991 245.751 1.99991C245.815 1.99991 245.877 1.99991 245.94 1.99991C246.002 1.99991 246.065 1.99991 246.127 1.99991C246.188 1.99991 246.25 1.99991 246.311 1.99991C246.372 1.99991 246.433 1.99991 246.494 1.99991C246.555 1.99991 246.615 1.99991 246.675 1.99991C246.735 1.99991 246.794 1.99991 246.853 1.99991C246.913 1.99991 246.972 1.99991 247.03 1.99991C247.089 1.99991 247.147 1.99991 247.205 1.99991C247.263 1.99991 247.32 1.99991 247.378 1.99991C247.435 1.99991 247.492 1.99991 247.548 1.99991C247.605 1.99991 247.661 1.99991 247.717 1.99991C247.773 1.99991 247.828 1.99991 247.883 1.99991C247.939 1.99991 247.994 1.99991 248.048 1.99991C248.103 1.99991 248.157 1.99991 248.211 1.99991C248.264 1.99991 248.318 1.99991 248.371 1.99991C248.424 1.99991 248.477 1.99991 248.529 1.99991C248.582 1.99991 248.634 1.99991 248.686 1.99991C248.737 1.99991 248.789 1.99991 248.84 1.99991C248.891 1.99991 248.942 1.99991 248.992 1.99991C249.042 1.99991 249.092 1.99991 249.142 1.99991C249.192 1.99991 249.241 1.99991 249.29 1.99991C249.339 1.99991 249.387 1.99991 249.436 1.99991C249.484 1.99991 249.532 1.99991 249.579 1.99991C249.627 1.99991 249.674 1.99991 249.721 1.99991C249.767 1.99991 249.814 1.99991 249.86 1.99991C249.906 1.99991 249.952 1.99991 249.997 1.99991C250.043 1.99991 250.088 1.99991 250.132 1.99991C250.177 1.99991 250.221 1.99991 250.265 1.99991C250.309 1.99991 250.353 1.99991 250.396 1.99991C250.439 1.99991 250.482 1.99991 250.524 1.99991C250.567 1.99991 250.609 1.99991 250.651 1.99991C250.692 1.99991 250.734 1.99991 250.775 1.99991C250.816 1.99991 250.856 1.99991 250.897 1.99991C250.937 1.99991 250.977 1.99991 251.016 1.99991C251.056 1.99991 251.095 1.99991 251.134 1.99991C251.173 1.99991 251.211 1.99991 251.249 1.99991C251.287 1.99991 251.325 1.99991 251.362 1.99991C251.399 1.99991 251.436 1.99991 251.473 1.99991C251.509 1.99991 251.546 1.99991 251.581 1.99991C251.617 1.99991 251.653 1.99991 251.688 1.99991C251.723 1.99991 251.757 1.99991 251.792 1.99991C251.826 1.99991 251.86 1.99991 251.893 1.99991C251.927 1.99991 251.96 1.99991 251.993 1.99991C252.025 1.99991 252.058 1.99991 252.09 1.99991C252.122 1.99991 252.153 1.99991 252.184 1.99991C252.216 1.99991 252.246 1.99991 252.277 1.99991C252.307 1.99991 252.337 1.99991 252.367 1.99991C252.397 1.99991 252.426 1.99991 252.455 1.99991C252.484 1.99991 252.512 1.99991 252.54 1.99991C252.569 1.99991 252.596 1.99991 252.624 1.99991C252.651 1.99991 252.678 1.99991 252.704 1.99991C252.731 1.99991 252.757 1.99991 252.783 1.99991C252.809 1.99991 252.834 1.99991 252.859 1.99991C252.884 1.99991 252.908 1.99991 252.933 1.99991C252.957 1.99991 252.98 1.99991 253.004 1.99991C253.027 1.99991 253.05 1.99991 253.073 1.99991C253.095 1.99991 253.118 1.99991 253.139 1.99991C253.161 1.99991 253.182 1.99991 253.203 1.99991C253.224 1.99991 253.245 1.99991 253.265 1.99991C253.285 1.99991 253.305 1.99991 253.324 1.99991C253.344 1.99991 253.363 1.99991 253.381 1.99991C253.4 1.99991 253.418 1.99991 253.436 1.99991C253.453 1.99991 253.471 1.99991 253.488 1.99991C253.504 1.99991 253.521 1.99991 253.537 1.99991C253.553 1.99991 253.569 1.99991 253.584 1.99991C253.599 1.99991 253.614 1.99991 253.629 1.99991C253.643 1.99991 253.657 1.99991 253.671 1.99991C253.684 1.99991 253.697 1.99991 253.71 1.99991C253.723 1.99991 253.735 1.99991 253.747 1.99991C253.759 1.99991 253.771 1.99991 253.782 1.99991C253.793 1.99991 253.804 1.99991 253.814 1.99991C253.824 1.99991 253.834 1.99991 253.844 1.99991C253.853 1.99991 253.862 1.99991 253.871 1.99991C253.879 1.99991 253.887 1.99991 253.895 1.99991C253.903 1.99991 253.91 1.99991 253.917 1.99991C253.924 1.99991 253.93 1.99991 253.936 1.99991C253.942 1.99991 253.948 1.99991 253.953 1.99991C253.958 1.99991 253.963 1.99991 253.968 1.99991C253.972 1.99991 253.976 1.99991 253.979 1.99991C253.983 1.99991 253.986 1.99991 253.988 1.99991C253.991 1.99991 253.993 1.99991 253.995 1.99991C253.997 1.99991 253.998 1.99991 253.999 1.99991C254 1.99991 254 1.99991 254 -9.20296e-05C254 -2.00009 254 -2.00009 253.999 -2.00009C253.998 -2.00009 253.997 -2.00009 253.995 -2.00009C253.993 -2.00009 253.991 -2.00009 253.988 -2.00009C253.986 -2.00009 253.983 -2.00009 253.979 -2.00009C253.976 -2.00009 253.972 -2.00009 253.968 -2.00009C253.963 -2.00009 253.958 -2.00009 253.953 -2.00009C253.948 -2.00009 253.942 -2.00009 253.936 -2.00009C253.93 -2.00009 253.924 -2.00009 253.917 -2.00009C253.91 -2.00009 253.903 -2.00009 253.895 -2.00009C253.887 -2.00009 253.879 -2.00009 253.871 -2.00009C253.862 -2.00009 253.853 -2.00009 253.844 -2.00009C253.834 -2.00009 253.824 -2.00009 253.814 -2.00009C253.804 -2.00009 253.793 -2.00009 253.782 -2.00009C253.771 -2.00009 253.759 -2.00009 253.747 -2.00009C253.735 -2.00009 253.723 -2.00009 253.71 -2.00009C253.697 -2.00009 253.684 -2.00009 253.671 -2.00009C253.657 -2.00009 253.643 -2.00009 253.629 -2.00009C253.614 -2.00009 253.599 -2.00009 253.584 -2.00009C253.569 -2.00009 253.553 -2.00009 253.537 -2.00009C253.521 -2.00009 253.504 -2.00009 253.488 -2.00009C253.471 -2.00009 253.453 -2.00009 253.436 -2.00009C253.418 -2.00009 253.4 -2.00009 253.381 -2.00009C253.363 -2.00009 253.344 -2.00009 253.324 -2.00009C253.305 -2.00009 253.285 -2.00009 253.265 -2.00009C253.245 -2.00009 253.224 -2.00009 253.203 -2.00009C253.182 -2.00009 253.161 -2.00009 253.139 -2.00009C253.118 -2.00009 253.095 -2.00009 253.073 -2.00009C253.05 -2.00009 253.027 -2.00009 253.004 -2.00009C252.98 -2.00009 252.957 -2.00009 252.933 -2.00009C252.908 -2.00009 252.884 -2.00009 252.859 -2.00009C252.834 -2.00009 252.809 -2.00009 252.783 -2.00009C252.757 -2.00009 252.731 -2.00009 252.704 -2.00009C252.678 -2.00009 252.651 -2.00009 252.624 -2.00009C252.596 -2.00009 252.569 -2.00009 252.54 -2.00009C252.512 -2.00009 252.484 -2.00009 252.455 -2.00009C252.426 -2.00009 252.397 -2.00009 252.367 -2.00009C252.337 -2.00009 252.307 -2.00009 252.277 -2.00009C252.246 -2.00009 252.216 -2.00009 252.184 -2.00009C252.153 -2.00009 252.122 -2.00009 252.09 -2.00009C252.058 -2.00009 252.025 -2.00009 251.993 -2.00009C251.96 -2.00009 251.927 -2.00009 251.893 -2.00009C251.86 -2.00009 251.826 -2.00009 251.792 -2.00009C251.757 -2.00009 251.723 -2.00009 251.688 -2.00009C251.653 -2.00009 251.617 -2.00009 251.581 -2.00009C251.546 -2.00009 251.509 -2.00009 251.473 -2.00009C251.436 -2.00009 251.399 -2.00009 251.362 -2.00009C251.325 -2.00009 251.287 -2.00009 251.249 -2.00009C251.211 -2.00009 251.173 -2.00009 251.134 -2.00009C251.095 -2.00009 251.056 -2.00009 251.016 -2.00009C250.977 -2.00009 250.937 -2.00009 250.897 -2.00009C250.856 -2.00009 250.816 -2.00009 250.775 -2.00009C250.734 -2.00009 250.692 -2.00009 250.651 -2.00009C250.609 -2.00009 250.567 -2.00009 250.524 -2.00009C250.482 -2.00009 250.439 -2.00009 250.396 -2.00009C250.353 -2.00009 250.309 -2.00009 250.265 -2.00009C250.221 -2.00009 250.177 -2.00009 250.132 -2.00009C250.088 -2.00009 250.043 -2.00009 249.997 -2.00009C249.952 -2.00009 249.906 -2.00009 249.86 -2.00009C249.814 -2.00009 249.767 -2.00009 249.721 -2.00009C249.674 -2.00009 249.627 -2.00009 249.579 -2.00009C249.532 -2.00009 249.484 -2.00009 249.436 -2.00009C249.387 -2.00009 249.339 -2.00009 249.29 -2.00009C249.241 -2.00009 249.192 -2.00009 249.142 -2.00009C249.092 -2.00009 249.042 -2.00009 248.992 -2.00009C248.942 -2.00009 248.891 -2.00009 248.84 -2.00009C248.789 -2.00009 248.737 -2.00009 248.686 -2.00009C248.634 -2.00009 248.582 -2.00009 248.529 -2.00009C248.477 -2.00009 248.424 -2.00009 248.371 -2.00009C248.318 -2.00009 248.264 -2.00009 248.211 -2.00009C248.157 -2.00009 248.103 -2.00009 248.048 -2.00009C247.994 -2.00009 247.939 -2.00009 247.883 -2.00009C247.828 -2.00009 247.773 -2.00009 247.717 -2.00009C247.661 -2.00009 247.605 -2.00009 247.548 -2.00009C247.492 -2.00009 247.435 -2.00009 247.378 -2.00009C247.32 -2.00009 247.263 -2.00009 247.205 -2.00009C247.147 -2.00009 247.089 -2.00009 247.03 -2.00009C246.972 -2.00009 246.913 -2.00009 246.853 -2.00009C246.794 -2.00009 246.735 -2.00009 246.675 -2.00009C246.615 -2.00009 246.555 -2.00009 246.494 -2.00009C246.433 -2.00009 246.372 -2.00009 246.311 -2.00009C246.25 -2.00009 246.188 -2.00009 246.127 -2.00009C246.065 -2.00009 246.002 -2.00009 245.94 -2.00009C245.877 -2.00009 245.815 -2.00009 245.751 -2.00009C245.688 -2.00009 245.625 -2.00009 245.561 -2.00009C245.497 -2.00009 245.433 -2.00009 245.368 -2.00009C245.304 -2.00009 245.239 -2.00009 245.174 -2.00009C245.109 -2.00009 245.043 -2.00009 244.977 -2.00009C244.912 -2.00009 244.846 -2.00009 244.779 -2.00009C244.713 -2.00009 244.646 -2.00009 244.579 -2.00009C244.512 -2.00009 244.445 -2.00009 244.377 -2.00009C244.309 -2.00009 244.241 -2.00009 244.173 -2.00009C244.105 -2.00009 244.036 -2.00009 243.967 -2.00009C243.898 -2.00009 243.829 -2.00009 243.759 -2.00009C243.69 -2.00009 243.62 -2.00009 243.55 -2.00009C243.479 -2.00009 243.409 -2.00009 243.338 -2.00009C243.267 -2.00009 243.196 -2.00009 243.125 -2.00009C243.053 -2.00009 242.982 -2.00009 242.91 -2.00009C242.837 -2.00009 242.765 -2.00009 242.692 -2.00009C242.62 -2.00009 242.547 -2.00009 242.474 -2.00009C242.4 -2.00009 242.327 -2.00009 242.253 -2.00009C242.179 -2.00009 242.105 -2.00009 242.03 -2.00009C241.956 -2.00009 241.881 -2.00009 241.806 -2.00009C241.731 -2.00009 241.656 -2.00009 241.58 -2.00009C241.504 -2.00009 241.428 -2.00009 241.352 -2.00009C241.276 -2.00009 241.199 -2.00009 241.122 -2.00009C241.045 -2.00009 240.968 -2.00009 240.891 -2.00009C240.813 -2.00009 240.736 -2.00009 240.658 -2.00009C240.579 -2.00009 240.501 -2.00009 240.423 -2.00009C240.344 -2.00009 240.265 -2.00009 240.186 -2.00009C240.107 -2.00009 240.027 -2.00009 239.947 -2.00009C239.867 -2.00009 239.787 -2.00009 239.707 -2.00009C239.627 -2.00009 239.546 -2.00009 239.465 -2.00009C239.384 -2.00009 239.303 -2.00009 239.221 -2.00009C239.14 -2.00009 239.058 -2.00009 238.976 -2.00009C238.894 -2.00009 238.811 -2.00009 238.729 -2.00009C238.646 -2.00009 238.563 -2.00009 238.48 -2.00009C238.397 -2.00009 238.313 -2.00009 238.229 -2.00009C238.146 -2.00009 238.062 -2.00009 237.977 -2.00009C237.893 -2.00009 237.808 -2.00009 237.723 -2.00009C237.639 -2.00009 237.553 -2.00009 237.468 -2.00009C237.383 -2.00009 237.297 -2.00009 237.211 -2.00009C237.125 -2.00009 237.039 -2.00009 236.952 -2.00009C236.865 -2.00009 236.779 -2.00009 236.692 -2.00009C236.604 -2.00009 236.517 -2.00009 236.429 -2.00009C236.342 -2.00009 236.254 -2.00009 236.166 -2.00009C236.078 -2.00009 235.989 -2.00009 235.9 -2.00009C235.812 -2.00009 235.723 -2.00009 235.633 -2.00009C235.544 -2.00009 235.455 -2.00009 235.365 -2.00009C235.275 -2.00009 235.185 -2.00009 235.095 -2.00009C235.004 -2.00009 234.914 -2.00009 234.823 -2.00009C234.732 -2.00009 234.641 -2.00009 234.55 -2.00009C234.458 -2.00009 234.367 -2.00009 234.275 -2.00009C234.183 -2.00009 234.091 -2.00009 233.998 -2.00009C233.906 -2.00009 233.813 -2.00009 233.72 -2.00009C233.628 -2.00009 233.534 -2.00009 233.441 -2.00009C233.348 -2.00009 233.254 -2.00009 233.16 -2.00009C233.066 -2.00009 232.972 -2.00009 232.877 -2.00009C232.783 -2.00009 232.688 -2.00009 232.593 -2.00009C232.498 -2.00009 232.403 -2.00009 232.308 -2.00009C232.212 -2.00009 232.116 -2.00009 232.02 -2.00009C231.925 -2.00009 231.828 -2.00009 231.732 -2.00009C231.635 -2.00009 231.539 -2.00009 231.442 -2.00009C231.345 -2.00009 231.248 -2.00009 231.15 -2.00009C231.053 -2.00009 230.955 -2.00009 230.857 -2.00009C230.759 -2.00009 230.661 -2.00009 230.563 -2.00009C230.464 -2.00009 230.366 -2.00009 230.267 -2.00009C230.168 -2.00009 230.069 -2.00009 229.969 -2.00009C229.87 -2.00009 229.77 -2.00009 229.67 -2.00009C229.57 -2.00009 229.47 -2.00009 229.37 -2.00009C229.27 -2.00009 229.169 -2.00009 229.068 -2.00009C228.967 -2.00009 228.866 -2.00009 228.765 -2.00009C228.664 -2.00009 228.562 -2.00009 228.461 -2.00009C228.359 -2.00009 228.257 -2.00009 228.155 -2.00009C228.052 -2.00009 227.95 -2.00009 227.847 -2.00009C227.745 -2.00009 227.642 -2.00009 227.539 -2.00009C227.435 -2.00009 227.332 -2.00009 227.228 -2.00009C227.125 -2.00009 227.021 -2.00009 226.917 -2.00009C226.813 -2.00009 226.709 -2.00009 226.604 -2.00009C226.5 -2.00009 226.395 -2.00009 226.29 -2.00009C226.185 -2.00009 226.08 -2.00009 225.974 -2.00009C225.869 -2.00009 225.763 -2.00009 225.658 -2.00009C225.552 -2.00009 225.446 -2.00009 225.339 -2.00009C225.233 -2.00009 225.127 -2.00009 225.02 -2.00009C224.913 -2.00009 224.806 -2.00009 224.699 -2.00009C224.592 -2.00009 224.484 -2.00009 224.377 -2.00009C224.269 -2.00009 224.161 -2.00009 224.053 -2.00009C223.945 -2.00009 223.837 -2.00009 223.729 -2.00009C223.62 -2.00009 223.512 -2.00009 223.403 -2.00009C223.294 -2.00009 223.185 -2.00009 223.075 -2.00009C222.966 -2.00009 222.857 -2.00009 222.747 -2.00009C222.637 -2.00009 222.527 -2.00009 222.417 -2.00009C222.307 -2.00009 222.197 -2.00009 222.086 -2.00009C221.976 -2.00009 221.865 -2.00009 221.754 -2.00009C221.643 -2.00009 221.532 -2.00009 221.42 -2.00009C221.309 -2.00009 221.197 -2.00009 221.086 -2.00009C220.974 -2.00009 220.862 -2.00009 220.75 -2.00009C220.637 -2.00009 220.525 -2.00009 220.412 -2.00009C220.3 -2.00009 220.187 -2.00009 220.074 -2.00009C219.961 -2.00009 219.848 -2.00009 219.735 -2.00009C219.621 -2.00009 219.508 -2.00009 219.394 -2.00009C219.28 -2.00009 219.166 -2.00009 219.052 -2.00009C218.938 -2.00009 218.823 -2.00009 218.709 -2.00009C218.594 -2.00009 218.479 -2.00009 218.365 -2.00009C218.25 -2.00009 218.134 -2.00009 218.019 -2.00009C217.904 -2.00009 217.788 -2.00009 217.673 -2.00009C217.557 -2.00009 217.441 -2.00009 217.325 -2.00009C217.209 -2.00009 217.093 -2.00009 216.976 -2.00009C216.86 -2.00009 216.743 -2.00009 216.626 -2.00009C216.509 -2.00009 216.392 -2.00009 216.275 -2.00009C216.158 -2.00009 216.041 -2.00009 215.923 -2.00009C215.805 -2.00009 215.688 -2.00009 215.57 -2.00009C215.452 -2.00009 215.334 -2.00009 215.215 -2.00009C215.097 -2.00009 214.979 -2.00009 214.86 -2.00009C214.741 -2.00009 214.622 -2.00009 214.503 -2.00009C214.384 -2.00009 214.265 -2.00009 214.146 -2.00009C214.027 -2.00009 213.907 -2.00009 213.787 -2.00009C213.668 -2.00009 213.548 -2.00009 213.428 -2.00009C213.308 -2.00009 213.187 -2.00009 213.067 -2.00009C212.947 -2.00009 212.826 -2.00009 212.705 -2.00009C212.584 -2.00009 212.464 -2.00009 212.342 -2.00009C212.221 -2.00009 212.1 -2.00009 211.979 -2.00009C211.857 -2.00009 211.736 -2.00009 211.614 -2.00009C211.492 -2.00009 211.37 -2.00009 211.248 -2.00009C211.126 -2.00009 211.004 -2.00009 210.881 -2.00009C210.759 -2.00009 210.636 -2.00009 210.514 -2.00009C210.391 -2.00009 210.268 -2.00009 210.145 -2.00009C210.022 -2.00009 209.899 -2.00009 209.775 -2.00009C209.652 -2.00009 209.528 -2.00009 209.405 -2.00009C209.281 -2.00009 209.157 -2.00009 209.033 -2.00009C208.909 -2.00009 208.785 -2.00009 208.66 -2.00009C208.536 -2.00009 208.411 -2.00009 208.287 -2.00009C208.162 -2.00009 208.037 -2.00009 207.912 -2.00009C207.787 -2.00009 207.662 -2.00009 207.537 -2.00009C207.412 -2.00009 207.286 -2.00009 207.161 -2.00009C207.035 -2.00009 206.91 -2.00009 206.784 -2.00009C206.658 -2.00009 206.532 -2.00009 206.406 -2.00009C206.279 -2.00009 206.153 -2.00009 206.027 -2.00009C205.9 -2.00009 205.774 -2.00009 205.647 -2.00009C205.52 -2.00009 205.393 -2.00009 205.266 -2.00009C205.139 -2.00009 205.012 -2.00009 204.885 -2.00009C204.757 -2.00009 204.63 -2.00009 204.502 -2.00009C204.374 -2.00009 204.247 -2.00009 204.119 -2.00009C203.991 -2.00009 203.863 -2.00009 203.735 -2.00009C203.607 -2.00009 203.478 -2.00009 203.35 -2.00009C203.221 -2.00009 203.093 -2.00009 202.964 -2.00009C202.835 -2.00009 202.706 -2.00009 202.577 -2.00009C202.448 -2.00009 202.319 -2.00009 202.19 -2.00009C202.061 -2.00009 201.931 -2.00009 201.802 -2.00009C201.672 -2.00009 201.543 -2.00009 201.413 -2.00009C201.283 -2.00009 201.153 -2.00009 201.023 -2.00009C200.893 -2.00009 200.763 -2.00009 200.632 -2.00009C200.502 -2.00009 200.372 -2.00009 200.241 -2.00009C200.111 -2.00009 199.98 -2.00009 199.849 -2.00009C199.718 -2.00009 199.587 -2.00009 199.456 -2.00009C199.325 -2.00009 199.194 -2.00009 199.063 -2.00009C198.931 -2.00009 198.8 -2.00009 198.668 -2.00009C198.537 -2.00009 198.405 -2.00009 198.273 -2.00009C198.141 -2.00009 198.01 -2.00009 197.878 -2.00009C197.745 -2.00009 197.613 -2.00009 197.481 -2.00009C197.349 -2.00009 197.216 -2.00009 197.084 -2.00009C196.951 -2.00009 196.819 -2.00009 196.686 -2.00009C196.553 -2.00009 196.42 -2.00009 196.287 -2.00009C196.154 -2.00009 196.021 -2.00009 195.888 -2.00009C195.755 -2.00009 195.622 -2.00009 195.488 -2.00009C195.355 -2.00009 195.221 -2.00009 195.088 -2.00009C194.954 -2.00009 194.82 -2.00009 194.686 -2.00009C194.553 -2.00009 194.419 -2.00009 194.285 -2.00009C194.15 -2.00009 194.016 -2.00009 193.882 -2.00009C193.748 -2.00009 193.613 -2.00009 193.479 -2.00009C193.344 -2.00009 193.21 -2.00009 193.075 -2.00009C192.94 -2.00009 192.806 -2.00009 192.671 -2.00009C192.536 -2.00009 192.401 -2.00009 192.266 -2.00009C192.131 -2.00009 191.995 -2.00009 191.86 -2.00009C191.725 -2.00009 191.589 -2.00009 191.454 -2.00009C191.318 -2.00009 191.183 -2.00009 191.047 -2.00009C190.911 -2.00009 190.775 -2.00009 190.64 -2.00009C190.504 -2.00009 190.368 -2.00009 190.232 -2.00009C190.096 -2.00009 189.959 -2.00009 189.823 -2.00009C189.687 -2.00009 189.551 -2.00009 189.414 -2.00009C189.278 -2.00009 189.141 -2.00009 189.005 -2.00009C188.868 -2.00009 188.731 -2.00009 188.594 -2.00009C188.458 -2.00009 188.321 -2.00009 188.184 -2.00009C188.047 -2.00009 187.91 -2.00009 187.773 -2.00009C187.635 -2.00009 187.498 -2.00009 187.361 -2.00009C187.224 -2.00009 187.086 -2.00009 186.949 -2.00009C186.811 -2.00009 186.674 -2.00009 186.536 -2.00009C186.398 -2.00009 186.261 -2.00009 186.123 -2.00009C185.985 -2.00009 185.847 -2.00009 185.709 -2.00009C185.571 -2.00009 185.433 -2.00009 185.295 -2.00009C185.157 -2.00009 185.019 -2.00009 184.88 -2.00009C184.742 -2.00009 184.604 -2.00009 184.465 -2.00009C184.327 -2.00009 184.188 -2.00009 184.05 -2.00009C183.911 -2.00009 183.773 -2.00009 183.634 -2.00009C183.495 -2.00009 183.356 -2.00009 183.217 -2.00009C183.079 -2.00009 182.94 -2.00009 182.801 -2.00009C182.662 -2.00009 182.522 -2.00009 182.383 -2.00009C182.244 -2.00009 182.105 -2.00009 181.966 -2.00009C181.826 -2.00009 181.687 -2.00009 181.548 -2.00009C181.408 -2.00009 181.269 -2.00009 181.129 -2.00009C180.99 -2.00009 180.85 -2.00009 180.71 -2.00009C180.571 -2.00009 180.431 -2.00009 180.291 -2.00009C180.151 -2.00009 180.012 -2.00009 179.872 -2.00009C179.732 -2.00009 179.592 -2.00009 179.452 -2.00009C179.312 -2.00009 179.172 -2.00009 179.031 -2.00009C178.891 -2.00009 178.751 -2.00009 178.611 -2.00009C178.471 -2.00009 178.33 -2.00009 178.19 -2.00009C178.05 -2.00009 177.909 -2.00009 177.769 -2.00009C177.628 -2.00009 177.488 -2.00009 177.347 -2.00009C177.206 -2.00009 177.066 -2.00009 176.925 -2.00009C176.784 -2.00009 176.644 -2.00009 176.503 -2.00009C176.362 -2.00009 176.221 -2.00009 176.08 -2.00009C175.939 -2.00009 175.798 -2.00009 175.658 -2.00009C175.517 -2.00009 175.375 -2.00009 175.234 -2.00009C175.093 -2.00009 174.952 -2.00009 174.811 -2.00009C174.67 -2.00009 174.529 -2.00009 174.387 -2.00009C174.246 -2.00009 174.105 -2.00009 173.964 -2.00009C173.822 -2.00009 173.681 -2.00009 173.539 -2.00009C173.398 -2.00009 173.257 -2.00009 173.115 -2.00009C172.974 -2.00009 172.832 -2.00009 172.69 -2.00009C172.549 -2.00009 172.407 -2.00009 172.266 -2.00009C172.124 -2.00009 171.982 -2.00009 171.841 -2.00009C171.699 -2.00009 171.557 -2.00009 171.415 -2.00009C171.273 -2.00009 171.132 -2.00009 170.99 -2.00009C170.848 -2.00009 170.706 -2.00009 170.564 -2.00009C170.422 -2.00009 170.28 -2.00009 170.138 -2.00009C169.996 -2.00009 169.854 -2.00009 169.712 -2.00009C169.57 -2.00009 169.428 -2.00009 169.286 -2.00009C169.144 -2.00009 169.002 -2.00009 168.86 -2.00009C168.718 -2.00009 168.575 -2.00009 168.433 -2.00009C168.291 -2.00009 168.149 -2.00009 168.007 -2.00009C167.864 -2.00009 167.722 -2.00009 167.58 -2.00009C167.438 -2.00009 167.295 -2.00009 167.153 -2.00009C167.011 -2.00009 166.868 -2.00009 166.726 -2.00009C166.583 -2.00009 166.441 -2.00009 166.299 -2.00009C166.156 -2.00009 166.014 -2.00009 165.871 -2.00009C165.729 -2.00009 165.587 -2.00009 165.444 -2.00009C165.302 -2.00009 165.159 -2.00009 165.017 -2.00009C164.874 -2.00009 164.732 -2.00009 164.589 -2.00009C164.447 -2.00009 164.304 -2.00009 164.162 -2.00009C164.019 -2.00009 163.876 -2.00009 163.734 -2.00009C163.591 -2.00009 163.449 -2.00009 163.306 -2.00009C163.164 -2.00009 163.021 -2.00009 162.878 -2.00009C162.736 -2.00009 162.593 -2.00009 162.451 -2.00009C162.308 -2.00009 162.165 -2.00009 162.023 -2.00009C161.88 -2.00009 161.738 -2.00009 161.595 -2.00009C161.452 -2.00009 161.31 -2.00009 161.167 -2.00009C161.024 -2.00009 160.882 -2.00009 160.739 -2.00009C160.597 -2.00009 160.454 -2.00009 160.311 -2.00009C160.169 -2.00009 160.026 -2.00009 159.883 -2.00009C159.741 -2.00009 159.598 -2.00009 159.456 -2.00009C159.313 -2.00009 159.17 -2.00009 159.028 -2.00009C158.885 -2.00009 158.742 -2.00009 158.6 -2.00009C158.457 -2.00009 158.315 -2.00009 158.172 -2.00009C158.03 -2.00009 157.887 -2.00009 157.744 -2.00009C157.602 -2.00009 157.459 -2.00009 157.317 -2.00009C157.174 -2.00009 157.032 -2.00009 156.889 -2.00009C156.747 -2.00009 156.604 -2.00009 156.462 -2.00009C156.319 -2.00009 156.177 -2.00009 156.034 -2.00009C155.892 -2.00009 155.749 -2.00009 155.607 -2.00009C155.464 -2.00009 155.322 -2.00009 155.179 -2.00009C155.037 -2.00009 154.895 -2.00009 154.752 -2.00009C154.61 -2.00009 154.468 -2.00009 154.325 -2.00009C154.183 -2.00009 154.041 -2.00009 153.898 -2.00009C153.756 -2.00009 153.614 -2.00009 153.471 -2.00009C153.329 -2.00009 153.187 -2.00009 153.045 -2.00009C152.903 -2.00009 152.76 -2.00009 152.618 -2.00009C152.476 -2.00009 152.334 -2.00009 152.192 -2.00009C152.05 -2.00009 151.908 -2.00009 151.766 -2.00009C151.624 -2.00009 151.482 -2.00009 151.34 -2.00009C151.198 -2.00009 151.056 -2.00009 150.914 -2.00009C150.772 -2.00009 150.63 -2.00009 150.488 -2.00009C150.346 -2.00009 150.204 -2.00009 150.062 -2.00009C149.921 -2.00009 149.779 -2.00009 149.637 -2.00009C149.495 -2.00009 149.354 -2.00009 149.212 -2.00009C149.07 -2.00009 148.929 -2.00009 148.787 -2.00009C148.646 -2.00009 148.504 -2.00009 148.362 -2.00009C148.221 -2.00009 148.079 -2.00009 147.938 -2.00009C147.797 -2.00009 147.655 -2.00009 147.514 -2.00009C147.372 -2.00009 147.231 -2.00009 147.09 -2.00009C146.949 -2.00009 146.807 -2.00009 146.666 -2.00009C146.525 -2.00009 146.384 -2.00009 146.243 -2.00009C146.102 -2.00009 145.961 -2.00009 145.82 -2.00009C145.679 -2.00009 145.538 -2.00009 145.397 -2.00009C145.256 -2.00009 145.115 -2.00009 144.974 -2.00009C144.833 -2.00009 144.692 -2.00009 144.552 -2.00009C144.411 -2.00009 144.27 -2.00009 144.13 -2.00009C143.989 -2.00009 143.849 -2.00009 143.708 -2.00009C143.568 -2.00009 143.427 -2.00009 143.287 -2.00009C143.146 -2.00009 143.006 -2.00009 142.866 -2.00009C142.725 -2.00009 142.585 -2.00009 142.445 -2.00009C142.305 -2.00009 142.165 -2.00009 142.025 -2.00009C141.884 -2.00009 141.744 -2.00009 141.605 -2.00009C141.465 -2.00009 141.325 -2.00009 141.185 -2.00009C141.045 -2.00009 140.905 -2.00009 140.766 -2.00009C140.626 -2.00009 140.486 -2.00009 140.347 -2.00009C140.207 -2.00009 140.068 -2.00009 139.928 -2.00009C139.789 -2.00009 139.649 -2.00009 139.51 -2.00009C139.371 -2.00009 139.231 -2.00009 139.092 -2.00009C138.953 -2.00009 138.814 -2.00009 138.675 -2.00009C138.536 -2.00009 138.397 -2.00009 138.258 -2.00009C138.119 -2.00009 137.98 -2.00009 137.841 -2.00009C137.703 -2.00009 137.564 -2.00009 137.425 -2.00009C137.287 -2.00009 137.148 -2.00009 137.01 -2.00009C136.871 -2.00009 136.733 -2.00009 136.595 -2.00009C136.456 -2.00009 136.318 -2.00009 136.18 -2.00009C136.042 -2.00009 135.904 -2.00009 135.766 -2.00009C135.628 -2.00009 135.49 -2.00009 135.352 -2.00009C135.214 -2.00009 135.076 -2.00009 134.938 -2.00009C134.801 -2.00009 134.663 -2.00009 134.526 -2.00009C134.388 -2.00009 134.251 -2.00009 134.113 -2.00009C133.976 -2.00009 133.839 -2.00009 133.701 -2.00009C133.564 -2.00009 133.427 -2.00009 133.29 -2.00009C133.153 -2.00009 133.016 -2.00009 132.879 -2.00009C132.742 -2.00009 132.606 -2.00009 132.469 -2.00009C132.332 -2.00009 132.196 -2.00009 132.059 -2.00009C131.923 -2.00009 131.786 -2.00009 131.65 -2.00009C131.514 -2.00009 131.378 -2.00009 131.241 -2.00009C131.105 -2.00009 130.969 -2.00009 130.833 -2.00009C130.697 -2.00009 130.562 -2.00009 130.426 -2.00009C130.29 -2.00009 130.154 -2.00009 130.019 -2.00009C129.883 -2.00009 129.748 -2.00009 129.613 -2.00009C129.477 -2.00009 129.342 -2.00009 129.207 -2.00009C129.072 -2.00009 128.937 -2.00009 128.802 -2.00009C128.667 -2.00009 128.532 -2.00009 128.397 -2.00009C128.262 -2.00009 128.128 -2.00009 127.993 -2.00009C127.858 -2.00009 127.724 -2.00009 127.59 -2.00009C127.455 -2.00009 127.321 -2.00009 127.187 -2.00009C127.053 -2.00009 126.919 -2.00009 126.785 -2.00009C126.651 -2.00009 126.517 -2.00009 126.383 -2.00009C126.25 -2.00009 126.116 -2.00009 125.983 -2.00009C125.849 -2.00009 125.716 -2.00009 125.583 -2.00009C125.449 -2.00009 125.316 -2.00009 125.183 -2.00009C125.05 -2.00009 124.917 -2.00009 124.784 -2.00009C124.652 -2.00009 124.519 -2.00009 124.386 -2.00009C124.254 -2.00009 124.121 -2.00009 123.989 -2.00009C123.857 -2.00009 123.724 -2.00009 123.592 -2.00009C123.46 -2.00009 123.328 -2.00009 123.196 -2.00009C123.065 -2.00009 122.933 -2.00009 122.801 -2.00009C122.67 -2.00009 122.538 -2.00009 122.407 -2.00009C122.275 -2.00009 122.144 -2.00009 122.013 -2.00009C121.882 -2.00009 121.751 -2.00009 121.62 -2.00009C121.489 -2.00009 121.358 -2.00009 121.228 -2.00009C121.097 -2.00009 120.966 -2.00009 120.836 -2.00009C120.706 -2.00009 120.575 -2.00009 120.445 -2.00009C120.315 -2.00009 120.185 -2.00009 120.055 -2.00009C119.925 -2.00009 119.796 -2.00009 119.666 -2.00009C119.536 -2.00009 119.407 -2.00009 119.278 -2.00009C119.148 -2.00009 119.019 -2.00009 118.89 -2.00009C118.761 -2.00009 118.632 -2.00009 118.503 -2.00009C118.374 -2.00009 118.246 -2.00009 118.117 -2.00009C117.989 -2.00009 117.86 -2.00009 117.732 -2.00009C117.604 -2.00009 117.476 -2.00009 117.348 -2.00009C117.22 -2.00009 117.092 -2.00009 116.964 -2.00009C116.837 -2.00009 116.709 -2.00009 116.582 -2.00009C116.454 -2.00009 116.327 -2.00009 116.2 -2.00009C116.073 -2.00009 115.946 -2.00009 115.819 -2.00009C115.692 -2.00009 115.565 -2.00009 115.439 -2.00009C115.312 -2.00009 115.186 -2.00009 115.06 -2.00009C114.933 -2.00009 114.807 -2.00009 114.681 -2.00009C114.555 -2.00009 114.43 -2.00009 114.304 -2.00009C114.178 -2.00009 114.053 -2.00009 113.927 -2.00009C113.802 -2.00009 113.677 -2.00009 113.552 -2.00009C113.427 -2.00009 113.302 -2.00009 113.177 -2.00009C113.052 -2.00009 112.928 -2.00009 112.803 -2.00009C112.679 -2.00009 112.555 -2.00009 112.431 -2.00009C112.306 -2.00009 112.183 -2.00009 112.059 -2.00009C111.935 -2.00009 111.811 -2.00009 111.688 -2.00009C111.564 -2.00009 111.441 -2.00009 111.318 -2.00009C111.195 -2.00009 111.072 -2.00009 110.949 -2.00009C110.826 -2.00009 110.703 -2.00009 110.581 -2.00009C110.458 -2.00009 110.336 -2.00009 110.214 -2.00009C110.092 -2.00009 109.97 -2.00009 109.848 -2.00009C109.726 -2.00009 109.604 -2.00009 109.483 -2.00009C109.361 -2.00009 109.24 -2.00009 109.119 -2.00009C108.997 -2.00009 108.876 -2.00009 108.756 -2.00009C108.635 -2.00009 108.514 -2.00009 108.394 -2.00009C108.273 -2.00009 108.153 -2.00009 108.033 -2.00009C107.912 -2.00009 107.793 -2.00009 107.673 -2.00009C107.553 -2.00009 107.433 -2.00009 107.314 -2.00009C107.194 -2.00009 107.075 -2.00009 106.956 -2.00009C106.837 -2.00009 106.718 -2.00009 106.599 -2.00009C106.48 -2.00009 106.362 -2.00009 106.244 -2.00009C106.125 -2.00009 106.007 -2.00009 105.889 -2.00009C105.771 -2.00009 105.653 -2.00009 105.535 -2.00009C105.418 -2.00009 105.3 -2.00009 105.183 -2.00009C105.066 -2.00009 104.949 -2.00009 104.832 -2.00009C104.715 -2.00009 104.598 -2.00009 104.481 -2.00009C104.365 -2.00009 104.248 -2.00009 104.132 -2.00009C104.016 -2.00009 103.9 -2.00009 103.784 -2.00009C103.668 -2.00009 103.553 -2.00009 103.437 -2.00009C103.322 -2.00009 103.207 -2.00009 103.092 -2.00009C102.977 -2.00009 102.862 -2.00009 102.747 -2.00009C102.632 -2.00009 102.518 -2.00009 102.404 -2.00009C102.289 -2.00009 102.175 -2.00009 102.062 -2.00009C101.948 -2.00009 101.834 -2.00009 101.72 -2.00009C101.607 -2.00009 101.494 -2.00009 101.381 -2.00009C101.267 -2.00009 101.155 -2.00009 101.042 -2.00009C100.929 -2.00009 100.817 -2.00009 100.704 -2.00009C100.592 -2.00009 100.48 -2.00009 100.368 -2.00009C100.256 -2.00009 100.145 -2.00009 100.033 -2.00009C99.9216 -2.00009 99.8103 -2.00009 99.6992 -2.00009C99.5882 -2.00009 99.4773 -2.00009 99.3666 -2.00009C99.256 -2.00009 99.1455 -2.00009 99.0352 -2.00009C98.925 -2.00009 98.8149 -2.00009 98.7051 -2.00009C98.5953 -2.00009 98.4856 -2.00009 98.3762 -2.00009C98.2668 -2.00009 98.1576 -2.00009 98.0486 -2.00009C97.9396 -2.00009 97.8309 -2.00009 97.7223 -2.00009C97.6137 -2.00009 97.5054 -2.00009 97.3972 -2.00009C97.2891 -2.00009 97.1812 -2.00009 97.0734 -2.00009C96.9657 -2.00009 96.8582 -2.00009 96.751 -2.00009C96.6437 -2.00009 96.5366 -2.00009 96.4298 -2.00009C96.323 -2.00009 96.2163 -2.00009 96.1099 -2.00009C96.0035 -2.00009 95.8973 -2.00009 95.7914 -2.00009C95.6854 -2.00009 95.5797 -2.00009 95.4742 -2.00009C95.3686 -2.00009 95.2633 -2.00009 95.1583 -2.00009C95.0532 -2.00009 94.9483 -2.00009 94.8437 -2.00009C94.7391 -2.00009 94.6347 -2.00009 94.5305 -2.00009C94.4263 -2.00009 94.3224 -2.00009 94.2187 -2.00009C94.115 -2.00009 94.0115 -2.00009 93.9082 -2.00009C93.8049 -2.00009 93.7019 -2.00009 93.5991 -2.00009C93.4963 -2.00009 93.3937 -2.00009 93.2914 -2.00009C93.1891 -2.00009 93.087 -2.00009 92.9851 -2.00009C92.8832 -2.00009 92.7816 -2.00009 92.6801 -2.00009C92.5787 -2.00009 92.4776 -2.00009 92.3766 -2.00009C92.2757 -2.00009 92.175 -2.00009 92.0745 -2.00009C91.9741 -2.00009 91.8738 -2.00009 91.7738 -2.00009C91.6739 -2.00009 91.5741 -2.00009 91.4746 -2.00009C91.3751 -2.00009 91.2758 -2.00009 91.1768 -2.00009C91.0777 -2.00009 90.979 -2.00009 90.8804 -2.00009C90.7819 -2.00009 90.6836 -2.00009 90.5855 -2.00009C90.4874 -2.00009 90.3896 -2.00009 90.292 -2.00009C90.1945 -2.00009 90.0971 -2.00009 90.0001 -2.00009V1.99991Z" fill="white" mask="url(#path-1-inside-1)"/>
</svg>
