<svg width="30" height="30" viewBox="0 0 30 30" fill="none" xmlns="http://www.w3.org/2000/svg">
<path fill-rule="evenodd" clip-rule="evenodd" d="M29.6319 27.8688L22.4198 20.6564C24.2075 18.4771 25.285 15.6853 25.285 12.6426C25.285 5.66329 19.6219 -0.000187993 12.6425 -0.000187993C5.657 -0.000187993 -1.80006e-05 5.66329 -1.80006e-05 12.6426C-1.80006e-05 19.6219 5.657 25.285 12.6425 25.285C15.6853 25.285 18.4709 24.2135 20.6505 22.4258L27.8625 29.6319C28.3523 30.1217 29.1421 30.1217 29.6319 29.6319C30.1217 29.1484 30.1217 28.3523 29.6319 27.8688ZM12.6425 22.7687C7.05287 22.7687 2.5101 18.2262 2.5101 12.6426C2.5101 7.05899 7.05287 2.51027 12.6425 2.51027C18.2261 2.51027 22.7749 7.05899 22.7749 12.6426C22.7749 18.2262 18.2261 22.7687 12.6425 22.7687Z" fill="white"/>
</svg>
