<svg width="16" height="31" viewBox="0 0 16 31" fill="none" xmlns="http://www.w3.org/2000/svg">
<path fill-rule="evenodd" clip-rule="evenodd" d="M12.2131 13.7213C11.0772 13.0707 9.86935 12.575 8.67356 12.0607C7.97995 11.7633 7.31632 11.4163 6.73036 10.9332C5.57636 9.97887 5.79763 8.43005 7.14885 7.81645C7.53149 7.64316 7.93215 7.58749 8.33873 7.56258C9.90522 7.47575 11.394 7.77321 12.8111 8.47948C13.5166 8.83265 13.7498 8.72127 13.989 7.95894C14.24 7.15374 14.4494 6.33573 14.6826 5.52393C14.838 4.97884 14.6467 4.61947 14.1504 4.39015C13.2415 3.97508 12.3088 3.67762 11.3282 3.51645C10.0487 3.31204 10.0487 3.30581 10.0427 1.97383C10.0368 0.096392 10.0368 0.096392 8.21908 0.096392C7.95611 0.096392 7.69294 0.090155 7.42986 0.096392C6.58083 0.121307 6.43732 0.276242 6.41346 1.16203C6.40153 1.55879 6.41346 1.95515 6.40745 2.35811C6.40153 3.53512 6.39552 3.51645 5.30737 3.92565C2.67658 4.91693 1.05025 6.77569 0.876782 9.74955C0.721343 12.3831 2.04872 14.1613 4.13543 15.4562C5.42092 16.2556 6.8439 16.7263 8.20715 17.352C8.73931 17.5938 9.2475 17.8726 9.68997 18.2569C10.9994 19.3782 10.7603 21.2432 9.20572 21.9495C8.3746 22.3275 7.4957 22.4206 6.59286 22.3026C5.19964 22.1231 3.86636 21.7451 2.61074 21.0699C1.87535 20.6731 1.66008 20.7786 1.40893 21.6025C1.19376 22.3151 1.00235 23.0338 0.811042 23.7525C0.553972 24.7193 0.649599 24.9486 1.54051 25.4007C2.67658 25.9707 3.8903 26.2619 5.12797 26.4663C6.09658 26.6275 6.12644 26.6711 6.13847 27.7118C6.14438 28.1826 6.14438 28.6599 6.15038 29.1306C6.15631 29.7255 6.43139 30.0724 7.02328 30.0849C7.69294 30.0974 8.3686 30.0974 9.03825 30.0787C9.58834 30.0662 9.86935 29.7563 9.86935 29.1801C9.86935 28.5357 9.89922 27.8855 9.87535 27.2411C9.84541 26.5843 10.1205 26.2494 10.7303 26.0762C12.1355 25.6794 13.3312 24.8988 14.252 23.7342C16.8111 20.512 15.8365 15.7969 12.2131 13.7213Z" fill="white"/>
</svg>
